SplineFontDB: 3.0
FontName: GanjNamehSans-Regular
FullName: GanjNamehSans Regular
FamilyName: GanjNamehSans
Weight: Regular
Copyright: Copyright (c) 2016 Copyright Holder (info@font-store.ir), with Reserved Font Name "Ganjnameh" \n\n Ganjnameh is a new redesign of Iranian Font Family by Neviseh Pardaz Co. Ltd. (www.nevisa.com), Hooman Mehr, Hadi Navid
UComments: "2015-5-13: Created with FontForge (http://fontforge.org)"
Version: Version:0.0.4;RFB:1.2.5;Building:2016-11-29 05:02:11.907146
FONDName: RITA
ItalicAngle: 0
UnderlinePosition: 500
UnderlineWidth: 59
Ascent: 800
Descent: 500
InvalidEm: 0
sfntRevision: 0x00010000
LayerCount: 2
Layer: 0 0 "Back" 1
Layer: 1 0 "Fore" 0
PreferredKerning: 4
XUID: [1021 828 -1901974348 32649]
StyleMap: 0x0040
FSType: 0
OS2Version: 0
OS2_WeightWidthSlopeOnly: 0
OS2_UseTypoMetrics: 0
CreationTime: 1431477301
ModificationTime: 1480383131
PfmFamily: 33
TTFWeight: 400
TTFWidth: 5
LineGap: 0
VLineGap: 0
Panose: 2 0 5 3 0 0 0 0 0 0
OS2TypoAscent: 800
OS2TypoAOffset: 0
OS2TypoDescent: -500
OS2TypoDOffset: 0
OS2TypoLinegap: 0
OS2WinAscent: 1100
OS2WinAOffset: 0
OS2WinDescent: 700
OS2WinDOffset: 0
HheadAscent: 1100
HheadAOffset: 0
HheadDescent: -700
HheadDOffset: 0
OS2SubXSize: 780
OS2SubYSize: 839
OS2SubXOff: -107
OS2SubYOff: 168
OS2SupXSize: 780
OS2SupYSize: 839
OS2SupXOff: 369
OS2SupYOff: 575
OS2StrikeYSize: 59
OS2StrikeYPos: 310
OS2Vendor: 'RITA'
OS2CodePages: 00000040.00000000
OS2UnicodeRanges: 80002003.80002000.00000008.00000000
MacStyle: 0
Lookup: 4 1 1 "'ccmp' Glyph Composition/Decomposition in Arabic lookup 5" { "'ccmp' Glyph Composition/Decomposition in Arabic lookup 5-1"  } ['ccmp' ('DFLT' <'dflt' > 'arab' <'dflt' > ) ]
Lookup: 1 9 0 "'isol' Isolated Forms in Latin lookup 1" { "'isol' Isolated Forms in Latin lookup 1-1"  } ['isol' ('DFLT' <'dflt' > 'arab' <'dflt' > ) ]
Lookup: 1 9 0 "'fina' Terminal Forms in Arabic lookup 3" { "'fina' Terminal Forms in Arabic lookup 3-1"  } ['fina' ('DFLT' <'dflt' > 'arab' <'dflt' > ) ]

StartChar: _.alef.isol
Encoding: 65536 -1 0
GlifName: _.alef.isol
Width: 270
VWidth: 1304
GlyphClass: 2
Flags: HMW
LayerCount: 2
Fore
SplineSet
90 0 m 1
 90 800 l 1
 180 800 l 1
 180 0 l 1
 90 0 l 1
EndSplineSet
Colour: ffda6b
EndChar

StartChar: _.alef.fina
Encoding: 65537 -1 1
GlifName: _.alef.fina
Width: 323
VWidth: 1304
GlyphClass: 2
Flags: HMW
LayerCount: 2
Fore
SplineSet
281 0 m 2
 154 0 90 71 90 194 c 2
 90 800 l 1
 180 800 l 1
 180 220 l 2
 180 141 229 100 308 100 c 2
 323 100 l 1
 323 0 l 1
 281 0 l 2
EndSplineSet
Colour: ffda6b
EndChar

StartChar: _.alef_kotah.isol
Encoding: 65538 -1 2
GlifName: _.alef_kotah.isol
Width: 270
VWidth: 1304
GlyphClass: 2
Flags: HMW
LayerCount: 2
Fore
SplineSet
90 0 m 1
 90 700 l 1
 180 700 l 1
 180 0 l 1
 90 0 l 1
EndSplineSet
Colour: ffda6b
EndChar

StartChar: _.alef_kotah.fina
Encoding: 65539 -1 3
GlifName: _.alef_kotah.fina
Width: 281
VWidth: 1304
GlyphClass: 2
Flags: HMW
LayerCount: 2
Fore
SplineSet
90 194 m 2
 90 700 l 1
 180 700 l 1
 180 212 l 2
 180 127 234 100 281 100 c 1
 281 0 l 1
 131 0 90 99 90 194 c 2
EndSplineSet
Colour: ffda6b
EndChar

StartChar: _.beh.isol
Encoding: 65540 -1 4
GlifName: _.beh.isol
Width: 984
VWidth: 1304
GlyphClass: 2
UnlinkRmOvrlpSave: 1
Flags: HMW
LayerCount: 2
Fore
SplineSet
90 185 m 0
 90 234 105 296 137 374 c 1
 218 349 l 1
 196 290 183 245 183 209 c 0
 183 125 254 100 447 100 c 0
 661 100 793 129 794 220 c 0
 794 261 769 319 741 390 c 1
 833 428 l 1
 869 346 894 274 894 220 c 0
 894 67 754 0 443 0 c 0
 236 0 90 29 90 185 c 0
EndSplineSet
Colour: ffda6b
EndChar

StartChar: _.beh.fina
Encoding: 65541 -1 5
GlifName: _.beh.fina
Width: 1034
VWidth: 1304
GlyphClass: 2
UnlinkRmOvrlpSave: 1
Flags: HMW
LayerCount: 2
Fore
SplineSet
90 185 m 0
 90 234 105 296 137 374 c 1
 218 349 l 1
 196 290 183 245 183 209 c 0
 183 125 254 100 447 100 c 0
 644 100 800 118 801 203 c 1
 801 321 l 1
 891 321 l 1
 891 204 l 2
 891 136 963 100 1018 100 c 2
 1034 100 l 1
 1034 0 l 1
 1018 0 l 2
 934 0 867 46 842 84 c 1
 763 8 601 0 443 0 c 0
 236 0 90 29 90 185 c 0
EndSplineSet
Colour: ffda6b
EndChar

StartChar: _.beh.medi
Encoding: 65542 -1 6
GlifName: _.beh.medi
Width: 505
VWidth: 1304
GlyphClass: 2
UnlinkRmOvrlpSave: 1
Flags: HMW
LayerCount: 2
Fore
SplineSet
-50 49 m 0
 -50 76 -27 100 -1 100 c 2
 103 100 l 2
 172 100 273 112 273 204 c 2
 273 321 l 1
 362 321 l 1
 362 204 l 2
 362 136 433 100 490 100 c 2
 505 100 l 1
 505 -0 l 1
 490 -0 l 2
 405 0 347 31 322 69 c 1
 273 6 199 0 103 -0 c 2
 -1 -0 l 2
 -25 0 -50 24 -50 49 c 0
EndSplineSet
Colour: ffda6b
EndChar

StartChar: _.beh.init
Encoding: 65543 -1 7
GlifName: _.beh.init
Width: 453
VWidth: 1197
GlyphClass: 1
UnlinkRmOvrlpSave: 1
Flags: HMW
LayerCount: 2
Fore
SplineSet
-50 50 m 0
 -49 76 -25 100 0 100 c 2
 143 100 l 2
 226 100 263 120 263 182 c 0
 263 225 245 289 212 380 c 1
 303 418 l 1
 343 316 363 236 363 173 c 0
 363 52 288 0 143 -0 c 2
 0 -0 l 2
 -26 0 -50 24 -50 50 c 0
EndSplineSet
Colour: ffda6b
EndChar

StartChar: _.heh.isol
Encoding: 65544 -1 8
GlifName: _.heh.isol
Width: 858
VWidth: 1304
GlyphClass: 1
UnlinkRmOvrlpSave: 1
Flags: HMW
LayerCount: 2
Fore
SplineSet
90 310 m 1
 156 392 192 441 276 441 c 0
 358 441 538 321 726 320 c 0
 740 320 754 320 768 320 c 1
 747 220 l 1
 697 220 l 1
 383 213 207 32 207 -97 c 0
 207 -251 343 -300 481 -300 c 0
 561 -300 641 -284 696 -262 c 1
 715 -361 l 1
 637 -386 552 -401 471 -401 c 0
 277 -401 107 -318 107 -102 c 0
 107 46 230 202 448 276 c 1
 359 308 285 340 265 340 c 0
 264 340 263 340 262 340 c 0
 239 340 212 323 154 255 c 1
 90 310 l 1
EndSplineSet
Colour: ffda6b
EndChar

StartChar: _.heh.fina
Encoding: 65545 -1 9
GlifName: _.heh.fina
Width: 827
VWidth: 1304
GlyphClass: 1
UnlinkRmOvrlpSave: 1
Flags: HMW
LayerCount: 2
Fore
SplineSet
90 310 m 1
 156 392 192 441 276 441 c 0
 358 441 538 321 726 320 c 0
 740 320 754 320 768 320 c 1
 747 220 l 1
 697 220 l 2
 677 220 659 217 639 216 c 1
 655 137 711 100 827 100 c 1
 827 0 l 1
 648 0 583 62 568 205 c 1
 335 159 207 14 207 -97 c 0
 207 -251 343 -300 481 -300 c 0
 561 -300 641 -284 696 -262 c 1
 715 -361 l 1
 637 -386 552 -401 471 -401 c 0
 277 -401 107 -318 107 -102 c 0
 107 46 230 202 448 276 c 1
 359 308 285 340 265 340 c 0
 264 340 263 340 262 340 c 0
 239 340 212 323 154 255 c 1
 90 310 l 1
EndSplineSet
Colour: ffda6b
EndChar

StartChar: _.heh.medi
Encoding: 65546 -1 10
GlifName: _.heh.medi
Width: 799
VWidth: 1304
GlyphClass: 1
UnlinkRmOvrlpSave: 1
Flags: HMW
LayerCount: 2
Fore
SplineSet
-50 50 m 0
 -50 76 -26 100 -1 100 c 2
 154 100 l 2
 298 100 392 190 486 255 c 1
 372 291 260 340 237 340 c 0
 236 340 235 340 234 340 c 0
 211 340 184 323 126 255 c 1
 62 310 l 1
 128 392 164 441 248 441 c 0
 330 441 510 320 700 320 c 2
 740 320 l 1
 719 220 l 1
 669 220 l 2
 651 220 632 214 614 208 c 1
 631 135 687 100 799 100 c 1
 799 -0 l 1
 635 0 566 53 545 172 c 1
 444 107 338 0 156 -0 c 2
 0 -0 l 2
 -25 0 -50 24 -50 50 c 0
EndSplineSet
Colour: ffda6b
EndChar

StartChar: _.heh.init
Encoding: 65547 -1 11
GlifName: _.heh.init
Width: 830
VWidth: 1304
GlyphClass: 1
UnlinkRmOvrlpSave: 1
Flags: HMW
LayerCount: 2
Fore
SplineSet
-50 50 m 0
 -50 76 -26 100 -1 100 c 2
 154 100 l 2
 300 100 389 190 484 255 c 1
 370 291 260 340 237 340 c 0
 236 340 235 340 234 340 c 0
 211 340 184 323 126 255 c 1
 62 310 l 1
 128 392 164 441 248 441 c 0
 330 441 510 320 700 320 c 2
 740 320 l 1
 719 220 l 1
 669 220 l 1
 515 211 412 0 156 -0 c 2
 0 -0 l 2
 -25 0 -50 24 -50 50 c 0
EndSplineSet
Colour: ffda6b
EndChar

StartChar: _.sin.isol
Encoding: 65548 -1 12
GlifName: _.sin.isol
Width: 1539
VWidth: 1304
GlyphClass: 1
UnlinkRmOvrlpSave: 1
Flags: HMW
LayerCount: 2
Fore
SplineSet
90 -66 m 0
 90 10 130 110 157 165 c 1
 248 128 l 1
 222 73 189 -4 189 -61 c 0
 189 -159 271 -197 370 -197 c 0
 521 -197 710 -109 710 -11 c 0
 710 -8 709 -4 709 -1 c 0
 703 48 664 130 610 225 c 1
 696 289 l 1
 703 277 709 264 715 252 c 1
 715 256 l 1
 729 234 746 204 772 177 c 0
 819 132 867 105 942 100 c 1
 991 101 1033 128 1048 191 c 2
 1072 293 l 1
 1161 271 l 1
 1130 144 l 1
 1151 126 1191 100 1248 100 c 0
 1315 100 1348 126 1348 184 c 0
 1348 214 1338 287 1311 357 c 1
 1402 396 l 1
 1438 298 1449 245 1449 180 c 0
 1449 56 1369 0 1248 0 c 0
 1180 0 1112 27 1080 59 c 1
 1044 23 1000 5 953 1 c 1
 953 0 l 1
 944 0 l 2
 940 0 937 -1 933 -1 c 0
 885 -1 837 12 807 29 c 1
 810 17 809 8 809 -2 c 0
 809 -186 585 -299 387 -299 c 0
 230 -299 90 -228 90 -66 c 0
EndSplineSet
Colour: ffda6b
EndChar

StartChar: _.sin.fina
Encoding: 65549 -1 13
GlifName: _.sin.fina
Width: 1601
VWidth: 1304
GlyphClass: 1
UnlinkRmOvrlpSave: 1
Flags: HMW
LayerCount: 2
Fore
SplineSet
90 -66 m 0
 90 10 130 110 157 165 c 1
 248 128 l 1
 222 73 189 -4 189 -61 c 0
 189 -159 271 -197 370 -197 c 0
 521 -197 710 -109 710 -11 c 0
 710 -8 709 -4 709 -1 c 0
 703 48 664 130 610 225 c 1
 696 289 l 1
 703 277 709 264 715 252 c 1
 715 256 l 1
 729 234 746 204 772 177 c 0
 819 132 867 105 942 100 c 1
 991 101 1033 128 1048 191 c 2
 1072 293 l 1
 1161 271 l 1
 1130 144 l 1
 1150 126 1191 100 1248 100 c 0
 1295 100 1333 118 1355 134 c 1
 1315 300 l 1
 1404 329 l 1
 1434 191 l 2
 1445 136 1474 100 1556 100 c 2
 1601 100 l 1
 1601 0 l 1
 1556 0 l 2
 1483 0 1436 18 1404 48 c 1
 1370 21 1307 0 1248 0 c 0
 1180 0 1112 27 1080 59 c 1
 1044 23 1000 5 953 1 c 1
 953 0 l 1
 944 0 l 2
 940 0 937 -1 933 -1 c 0
 885 -1 837 12 807 29 c 1
 810 17 809 8 809 -2 c 0
 809 -186 585 -299 387 -299 c 0
 230 -299 90 -228 90 -66 c 0
EndSplineSet
Colour: ffda6b
EndChar

StartChar: _.sin.medi
Encoding: 65550 -1 14
GlifName: _.sin.medi
Width: 1092
VWidth: 1304
GlyphClass: 1
UnlinkRmOvrlpSave: 1
Flags: HMW
LayerCount: 2
Fore
SplineSet
-50 50 m 0
 -50 76 -26 100 0 100 c 2
 101 100 l 2
 174 100 217 157 226 191 c 2
 255 314 l 1
 344 293 l 1
 306 142 l 1
 346 116 391 100 431 100 c 0
 482 100 525 127 541 191 c 1
 564 293 l 1
 653 271 l 1
 622 144 l 1
 643 126 683 100 740 100 c 0
 787 100 825 118 847 134 c 1
 807 300 l 1
 895 329 l 1
 926 191 l 2
 938 136 966 100 1048 100 c 2
 1092 100 l 1
 1092 -0 l 1
 1048 -0 l 2
 977 0 927 18 895 48 c 1
 861 21 799 0 740 -0 c 0
 672 0 604 27 572 59 c 1
 532 18 478 0 424 -0 c 0
 363 0 301 22 259 61 c 1
 218 18 164 0 109 -0 c 2
 0 -0 l 2
 -26 0 -50 24 -50 50 c 0
EndSplineSet
Colour: ffda6b
EndChar

StartChar: _.sin.init
Encoding: 65551 -1 15
GlifName: _.sin.init
Width: 1031
VWidth: 1304
GlyphClass: 1
UnlinkRmOvrlpSave: 1
Flags: HMW
LayerCount: 2
Fore
SplineSet
-50 50 m 0
 -50 76 -26 100 0 100 c 2
 101 100 l 2
 174 100 217 157 226 191 c 2
 255 314 l 1
 344 293 l 1
 306 142 l 1
 346 116 391 100 431 100 c 0
 482 100 525 127 541 191 c 1
 564 293 l 1
 653 271 l 1
 622 144 l 1
 643 126 683 100 740 100 c 0
 807 100 840 126 840 184 c 0
 840 214 830 287 803 357 c 1
 895 396 l 1
 929 298 941 245 941 180 c 0
 941 56 861 0 740 -0 c 0
 672 0 604 27 572 59 c 1
 532 18 478 0 424 -0 c 0
 363 0 301 22 259 61 c 1
 218 18 164 0 109 -0 c 2
 0 -0 l 2
 -26 0 -50 24 -50 50 c 0
EndSplineSet
Colour: ffda6b
EndChar

StartChar: _.sad.isol
Encoding: 65552 -1 16
GlifName: _.sad.isol
Width: 1527
VWidth: 1304
GlyphClass: 1
UnlinkRmOvrlpSave: 1
Flags: HMW
LayerCount: 2
Fore
SplineSet
90 -66 m 0
 90 10 130 110 157 165 c 1
 249 128 l 1
 222 74 189 -4 189 -61 c 0
 189 -159 271 -197 370 -197 c 0
 521 -197 711 -109 711 -11 c 2
 711 -1 l 1
 704 48 664 130 610 225 c 1
 697 289 l 1
 720 243 747 194 768 146 c 0
 778 129 796 118 814 111 c 1
 884 218 948 306 1017 368 c 0
 1073 418 1140 442 1204 442 c 0
 1327 442 1439 352 1437 180 c 0
 1438 79 1343 0 1177 0 c 2
 878 0 l 2
 853 0 830 2 809 7 c 1
 810 4 810 2 810 -1 c 0
 810 -186 585 -299 387 -299 c 0
 230 -299 90 -228 90 -66 c 0
922 100 m 1
 1178 100 l 2
 1267 100 1338 133 1338 170 c 0
 1338 277 1278 340 1200 340 c 0
 1160 340 1116 324 1074 288 c 0
 1025 246 974 181 922 100 c 1
EndSplineSet
Colour: ffda6b
EndChar

StartChar: _.sad.fina
Encoding: 65553 -1 17
GlifName: _.sad.fina
Width: 1559
VWidth: 1304
GlyphClass: 1
UnlinkRmOvrlpSave: 1
Flags: HMW
LayerCount: 2
Fore
SplineSet
90 -66 m 0
 90 10 130 110 157 165 c 1
 249 128 l 1
 222 74 189 -4 189 -61 c 0
 189 -159 271 -197 370 -197 c 0
 521 -197 711 -109 711 -11 c 2
 711 -1 l 1
 704 48 664 130 610 225 c 1
 697 289 l 1
 720 243 747 194 768 146 c 0
 778 129 796 118 814 111 c 1
 884 218 948 306 1017 368 c 0
 1073 418 1140 442 1204 442 c 0
 1326 442 1437 353 1437 183 c 0
 1437 153 1431 127 1417 104 c 1
 1447 100 1485 99 1520 99 c 0
 1534 99 1547 100 1559 100 c 1
 1559 0 l 1
 1477 0 1408 0 1338 33 c 1
 1296 12 1242 0 1177 0 c 2
 878 0 l 2
 853 0 830 2 809 7 c 1
 810 4 810 2 810 -1 c 0
 810 -186 585 -299 387 -299 c 0
 230 -299 90 -228 90 -66 c 0
922 100 m 1
 1178 100 l 2
 1267 100 1338 133 1338 170 c 0
 1338 277 1278 340 1200 340 c 0
 1160 340 1116 324 1074 288 c 0
 1025 246 974 181 922 100 c 1
EndSplineSet
Colour: ffda6b
EndChar

StartChar: _.sad.medi
Encoding: 65554 -1 18
GlifName: _.sad.medi
Width: 1053
VWidth: 1304
GlyphClass: 1
UnlinkRmOvrlpSave: 1
Flags: HMW
LayerCount: 2
Fore
SplineSet
-50 50 m 0
 -50 76 -26 100 0 100 c 2
 35 100 l 2
 92 100 163 116 163 184 c 2
 163 290 l 1
 253 290 l 1
 253 184 l 2
 253 145 277 123 308 111 c 1
 378 218 442 306 511 368 c 0
 567 418 635 442 699 442 c 0
 821 442 931 353 931 183 c 0
 931 153 925 127 911 104 c 1
 941 100 979 99 1014 99 c 0
 1028 99 1041 100 1053 100 c 1
 1053 -0 l 1
 971 0 903 0 833 33 c 1
 791 12 736 0 671 -0 c 2
 372 -0 l 1
 298 1 245 19 209 55 c 1
 209 56 l 1
 209 55 l 1
 172 18 114 0 35 -0 c 2
 0 -0 l 2
 -26 0 -50 24 -50 50 c 0
417 100 m 1
 673 100 l 2
 762 100 833 133 833 170 c 0
 833 277 772 340 694 340 c 0
 654 340 610 324 568 288 c 0
 519 246 469 181 417 100 c 1
EndSplineSet
Colour: ffda6b
EndChar

StartChar: _.sad.init
Encoding: 65555 -1 19
GlifName: _.sad.init
Width: 1021
VWidth: 1304
GlyphClass: 1
UnlinkRmOvrlpSave: 1
Flags: HMW
LayerCount: 2
Fore
SplineSet
931 185 m 2
 931 178 l 2
 931 78 836 0 671 -0 c 2
 372 -0 l 1
 298 1 245 19 209 55 c 1
 172 18 114 0 35 -0 c 2
 0 -0 l 2
 -26 0 -50 24 -50 50 c 0
 -50 76 -26 100 0 100 c 2
 35 100 l 2
 92 100 163 116 163 184 c 2
 163 290 l 1
 253 290 l 1
 253 184 l 2
 253 145 277 123 308 111 c 1
 378 218 442 306 511 368 c 0
 567 418 635 442 699 442 c 0
 821 442 931 354 931 185 c 2
417 100 m 1
 673 100 l 2
 762 100 833 133 833 170 c 0
 833 277 772 340 694 340 c 0
 654 340 610 324 568 288 c 0
 519 246 469 181 417 100 c 1
EndSplineSet
Colour: ffda6b
EndChar

StartChar: _.ta.isol
Encoding: 65556 -1 20
GlifName: _.ta.isol
Width: 1037
VWidth: 1304
GlyphClass: 1
UnlinkRmOvrlpSave: 1
Flags: HMW
LayerCount: 2
Fore
SplineSet
409 234 m 1
 478 330 573 442 714 442 c 0
 837 442 949 352 947 180 c 0
 948 79 853 0 687 0 c 2
 298 0 l 1
 224 2 153 21 90 53 c 1
 131 145 l 1
 180 117 245 101 309 100 c 1
 318 100 l 1
 318 800 l 1
 409 800 l 1
 409 234 l 1
432 100 m 1
 688 100 l 2
 777 100 848 133 848 170 c 0
 848 277 788 340 710 340 c 0
 670 340 626 324 584 288 c 0
 535 246 484 181 432 100 c 1
EndSplineSet
Colour: ffda6b
EndChar

StartChar: _.ta.fina
Encoding: 65557 -1 21
GlifName: _.ta.fina
Width: 1069
VWidth: 1304
GlyphClass: 1
UnlinkRmOvrlpSave: 1
Flags: HMW
LayerCount: 2
Fore
SplineSet
409 234 m 1
 478 330 573 442 714 442 c 0
 836 442 947 353 947 183 c 0
 947 153 941 127 927 104 c 1
 957 100 995 99 1030 99 c 0
 1044 99 1057 100 1069 100 c 1
 1069 0 l 1
 987 0 918 0 848 33 c 1
 806 12 752 0 687 0 c 2
 298 0 l 1
 224 2 153 21 90 53 c 1
 131 145 l 1
 180 117 245 101 309 100 c 1
 318 100 l 1
 318 800 l 1
 409 800 l 1
 409 234 l 1
432 100 m 1
 688 100 l 2
 777 100 848 133 848 170 c 0
 848 277 788 340 710 340 c 0
 670 340 626 324 584 288 c 0
 535 246 484 181 432 100 c 1
EndSplineSet
Colour: ffda6b
EndChar

StartChar: _.ta.medi
Encoding: 65558 -1 22
GlifName: _.ta.medi
Width: 860
VWidth: 1304
GlyphClass: 1
UnlinkRmOvrlpSave: 1
Flags: HMW
LayerCount: 2
Fore
SplineSet
200 234 m 1
 269 330 364 442 505 442 c 0
 627 442 738 353 738 183 c 0
 738 153 732 127 718 104 c 1
 748 100 786 99 821 99 c 0
 835 99 848 100 860 100 c 1
 860 -0 l 1
 778 0 709 0 639 33 c 1
 597 12 543 0 478 -0 c 2
 0 -0 l 1
 -25 1 -50 24 -50 50 c 0
 -49 75 -26 99 -1 100 c 1
 109 100 l 1
 109 800 l 1
 200 800 l 1
 200 234 l 1
223 100 m 1
 479 100 l 2
 568 100 639 133 639 170 c 0
 639 277 579 340 501 340 c 0
 461 340 417 324 375 288 c 0
 326 246 275 181 223 100 c 1
EndSplineSet
Colour: ffda6b
EndChar

StartChar: _.ta.init
Encoding: 65559 -1 23
GlifName: _.ta.init
Width: 828
VWidth: 1304
GlyphClass: 1
UnlinkRmOvrlpSave: 1
Flags: HMW
LayerCount: 2
Fore
SplineSet
738 185 m 2
 738 178 l 2
 738 78 643 0 478 -0 c 2
 0 -0 l 1
 -25 1 -50 24 -50 50 c 0
 -49 75 -26 99 -1 100 c 1
 109 100 l 1
 109 800 l 1
 200 800 l 1
 200 234 l 1
 269 330 364 442 505 442 c 0
 627 442 738 354 738 185 c 2
223 100 m 1
 479 100 l 2
 568 100 639 133 639 170 c 0
 639 277 579 340 501 340 c 0
 461 340 417 324 375 288 c 0
 326 246 275 181 223 100 c 1
EndSplineSet
Colour: ffda6b
EndChar

StartChar: _.ein.isol
Encoding: 65560 -1 24
GlifName: _.ein.isol
Width: 788
VWidth: 1304
GlyphClass: 1
UnlinkRmOvrlpSave: 1
Flags: HMW
LayerCount: 2
Fore
SplineSet
384 535 m 0
 315 535 245 506 245 430 c 0
 245 369 298 306 369 285 c 1
 435 291 505 303 591 315 c 1
 605 210 l 1
 571 205 537 200 505 196 c 1
 302 141 191 6 191 -97 c 0
 191 -251 327 -300 464 -300 c 0
 544 -300 624 -284 678 -262 c 1
 698 -361 l 1
 620 -386 535 -401 454 -401 c 0
 260 -401 90 -317 90 -100 c 0
 90 11 161 127 289 208 c 1
 202 240 145 328 145 420 c 0
 145 461 156 502 181 540 c 0
 230 616 302 642 375 642 c 0
 440 642 506 621 554 598 c 1
 516 506 l 1
 476 524 428 535 384 535 c 0
EndSplineSet
Colour: ffda6b
EndChar

StartChar: _.ein.fina
Encoding: 65561 -1 25
GlifName: _.ein.fina
Width: 773
VWidth: 1304
GlyphClass: 1
UnlinkRmOvrlpSave: 1
Flags: HMW
LayerCount: 2
Fore
SplineSet
390 263 m 1
 372 308 338 350 271 350 c 0
 260 350 250 349 239 347 c 1
 212 440 l 1
 290 499 371 522 441 522 c 0
 550 522 632 468 632 410 c 0
 632 342 586 278 521 228 c 1
 591 141 655 100 773 100 c 1
 773 0 l 1
 627 0 529 50 440 173 c 1
 322 125 191 29 191 -97 c 0
 191 -251 327 -300 464 -300 c 0
 544 -300 624 -284 678 -262 c 1
 698 -361 l 1
 620 -386 535 -401 454 -401 c 0
 260 -401 90 -317 90 -100 c 0
 90 70 239 197 390 261 c 1
 390 263 l 1
EndSplineSet
Colour: ffda6b
EndChar

StartChar: _.ein.medi
Encoding: 65562 -1 26
GlifName: _.ein.medi
Width: 575
VWidth: 1304
GlyphClass: 1
UnlinkRmOvrlpSave: 1
Flags: HMW
LayerCount: 2
Fore
SplineSet
-50 50 m 0
 -50 76 -26 100 -1 100 c 0
 85 100 179 120 229 167 c 1
 210 211 177 250 112 250 c 0
 103 250 93 249 82 247 c 1
 55 340 l 1
 133 400 215 422 286 422 c 0
 394 422 474 369 474 310 c 0
 474 247 435 188 378 139 c 1
 420 116 475 100 554 100 c 2
 575 100 l 1
 575 -0 l 1
 540 -0 l 2
 443 0 355 34 296 82 c 1
 209 32 104 0 26 -0 c 2
 0 -0 l 2
 -25 0 -50 24 -50 50 c 0
EndSplineSet
Colour: ffda6b
EndChar

StartChar: _.ein.init
Encoding: 65563 -1 27
GlifName: _.ein.init
Width: 641
VWidth: 1304
GlyphClass: 1
UnlinkRmOvrlpSave: 1
Flags: HMW
LayerCount: 2
Fore
SplineSet
321 396 m 0
 254 396 182 366 182 290 c 0
 182 216 261 138 354 138 c 0
 360 138 365 138 371 139 c 0
 419 149 469 161 527 175 c 1
 551 72 l 1
 347 18 207 0 -1 -0 c 0
 -25 0 -50 24 -50 49 c 0
 -50 76 -27 100 -1 100 c 0
 61 100 113 102 162 106 c 1
 112 149 82 213 82 280 c 0
 82 321 93 363 117 401 c 0
 165 477 238 502 310 502 c 0
 376 502 441 481 490 458 c 1
 452 365 l 1
 413 384 366 396 321 396 c 0
EndSplineSet
Colour: ffda6b
EndChar

StartChar: _.feh.isol
Encoding: 65564 -1 28
GlifName: _.feh.isol
Width: 981
VWidth: 1304
GlyphClass: 1
UnlinkRmOvrlpSave: 1
Flags: HMW
LayerCount: 2
Fore
SplineSet
90 189 m 0
 90 238 104 298 132 374 c 1
 214 349 l 1
 191 294 178 249 178 214 c 0
 178 131 251 100 442 100 c 0
 556 100 685 110 751 144 c 0
 781 161 791 183 796 216 c 1
 766 207 729 200 691 200 c 2
 687 200 l 2
 556 200 510 275 510 358 c 0
 511 490 597 602 693 602 c 0
 805 602 891 422 891 260 c 2
 891 231 l 2
 891 213 891 196 888 181 c 1
 888 180 l 2
 888 146 875 118 854 96 c 0
 827 65 783 41 708 24 c 0
 629 6 530 0 439 0 c 2
 416 0 l 2
 219 0 90 36 90 189 c 0
600 359 m 0
 600 323 635 300 689 300 c 0
 691 300 693 300 695 300 c 0
 728 300 766 309 794 316 c 1
 778 410 732 500 689 500 c 0
 645 500 601 433 600 359 c 0
EndSplineSet
Colour: ffda6b
EndChar

StartChar: _.feh.fina
Encoding: 65565 -1 29
GlifName: _.feh.fina
Width: 1071
VWidth: 1304
GlyphClass: 1
UnlinkRmOvrlpSave: 1
Flags: HMW
LayerCount: 2
Fore
SplineSet
90 189 m 0
 90 238 104 298 132 374 c 1
 214 349 l 1
 191 294 178 249 178 214 c 0
 178 131 251 100 442 100 c 0
 515 100 591 103 656 114 c 1
 615 157 599 208 599 257 c 0
 599 367 684 470 778 470 c 0
 891 470 957 385 957 287 c 0
 957 228 933 165 881 113 c 1
 924 104 975 100 1037 100 c 2
 1071 100 l 1
 1071 0 l 1
 1034 0 l 2
 920 0 832 16 767 42 c 1
 678 9 553 0 439 0 c 2
 416 0 l 2
 219 0 90 36 90 189 c 0
689 264 m 0
 689 224 712 180 773 148 c 1
 840 184 867 234 867 278 c 0
 867 328 833 369 782 369 c 0
 734 369 689 320 689 264 c 0
EndSplineSet
Colour: ffda6b
EndChar

StartChar: _.feh.medi
Encoding: 65566 -1 30
GlifName: _.feh.medi
Width: 620
VWidth: 1304
GlyphClass: 1
UnlinkRmOvrlpSave: 1
Flags: HMW
LayerCount: 2
Fore
SplineSet
-50 49 m 0
 -50 76 -27 100 -1 100 c 2
 67 100 l 2
 114 100 155 103 189 109 c 1
 146 153 127 205 127 256 c 0
 127 366 213 470 307 470 c 0
 420 470 486 385 486 287 c 0
 486 228 462 165 410 113 c 1
 453 104 504 100 566 100 c 2
 620 100 l 1
 620 -0 l 1
 563 -0 l 2
 452 0 366 14 301 40 c 1
 243 14 169 0 79 -0 c 2
 -1 -0 l 2
 -25 0 -50 24 -50 49 c 0
218 264 m 0
 218 224 241 180 302 148 c 1
 369 184 396 234 396 278 c 0
 396 328 362 369 311 369 c 0
 263 369 218 320 218 264 c 0
EndSplineSet
Colour: ffda6b
EndChar

StartChar: _.feh.init
Encoding: 65567 -1 31
GlifName: _.feh.init
Width: 513
VWidth: 1304
GlyphClass: 1
UnlinkRmOvrlpSave: 1
Flags: HMW
LayerCount: 2
Fore
SplineSet
-50 50 m 0
 -49 76 -25 100 0 100 c 2
 209 100 l 2
 284 100 318 150 327 215 c 1
 297 208 260 200 222 200 c 0
 221 200 220 200 219 200 c 0
 88 200 41 275 41 358 c 0
 42 490 128 602 224 602 c 0
 336 602 423 422 423 259 c 0
 423 125 364 2 211 -0 c 1
 0 -0 l 2
 -25 0 -50 24 -50 50 c 0
131 359 m 0
 131 323 167 300 221 300 c 0
 223 300 225 300 227 300 c 0
 260 300 297 309 325 316 c 1
 309 410 264 500 221 500 c 0
 177 500 132 433 131 359 c 0
EndSplineSet
Colour: ffda6b
EndChar

StartChar: _.qaf.isol
Encoding: 65568 -1 32
GlifName: _.qaf.isol
Width: 896
VWidth: 1304
GlyphClass: 1
UnlinkRmOvrlpSave: 1
Flags: HMW
LayerCount: 2
Fore
SplineSet
806 -13 m 2
 806 -24 l 1
 798 -194 579 -301 386 -301 c 0
 230 -301 90 -231 90 -68 c 0
 90 5 118 97 186 210 c 1
 249 170 l 1
 202 83 182 14 182 -40 c 0
 182 -156 275 -200 383 -200 c 0
 532 -200 710 -117 716 -26 c 1
 716 13 l 1
 686 6 646 -3 607 -3 c 0
 606 -3 605 -3 604 -3 c 0
 473 -3 426 72 426 156 c 0
 428 288 513 399 612 399 c 0
 705 399 806 290 806 -13 c 2
516 157 m 0
 516 120 552 97 606 97 c 0
 608 97 610 97 612 97 c 0
 645 97 681 106 708 113 c 1
 690 245 641 296 607 296 c 0
 563 296 517 230 516 157 c 0
EndSplineSet
Colour: ffda6b
EndChar

StartChar: _.qaf.fina
Encoding: 65569 -1 33
GlifName: _.qaf.fina
Width: 905
VWidth: 1304
GlyphClass: 1
UnlinkRmOvrlpSave: 1
Flags: HMW
LayerCount: 2
Fore
SplineSet
426 157 m 0
 428 289 513 401 611 401 c 0
 692 401 779 321 801 100 c 1
 905 100 l 1
 905 0 l 1
 806 0 l 1
 806 -8 806 -16 806 -24 c 0
 798 -194 579 -301 386 -301 c 0
 230 -301 90 -231 90 -68 c 0
 90 5 118 97 186 210 c 1
 249 170 l 1
 202 83 182 13 182 -41 c 0
 182 -157 275 -200 383 -200 c 0
 533 -200 712 -116 716 -24 c 1
 716 0 l 1
 607 0 l 2
 474 0 426 72 426 157 c 0
516 159 m 0
 516 122 551 100 606 100 c 2
 711 100 l 1
 694 244 643 299 607 299 c 0
 563 299 517 232 516 159 c 0
EndSplineSet
Colour: ffda6b
EndChar

StartChar: _.kaf.isol.fa
Encoding: 65570 -1 34
GlifName: _.kaf.isol.fa
Width: 1036
VWidth: 1304
GlyphClass: 1
UnlinkRmOvrlpSave: 1
Flags: HMW
LayerCount: 2
Fore
SplineSet
90 186 m 0
 90 235 105 297 136 374 c 1
 218 349 l 1
 196 290 183 245 183 209 c 0
 183 125 254 100 447 100 c 2
 600 100 l 2
 723 100 754 134 755 181 c 0
 755 315 531 457 498 479 c 1
 515 577 516 593 557 618 c 0
 653 675 811 748 946 800 c 1
 946 697 l 1
 840 661 697 591 597 533 c 1
 772 410 854 291 854 180 c 0
 854 75 775 0 616 0 c 2
 444 0 l 2
 237 0 90 29 90 186 c 0
EndSplineSet
Colour: ffda6b
EndChar

StartChar: _.kaf.isol.ar
Encoding: 65571 -1 35
GlifName: _.kaf.isol.ar
Width: 923
VWidth: 1304
GlyphClass: 1
UnlinkRmOvrlpSave: 1
Flags: HMW
LayerCount: 2
Fore
SplineSet
90 92 m 0
 90 122 110 169 134 169 c 0
 140 169 146 166 152 160 c 0
 190 120 309 96 429 96 c 0
 580 96 735 134 743 229 c 1
 743 769 l 2
 743 789 766 800 789 800 c 0
 811 800 833 790 833 769 c 2
 833 241 l 1
 835 60 622 -7 420 -7 c 0
 283 -7 152 24 97 70 c 0
 92 74 90 82 90 92 c 0
EndSplineSet
Colour: ffda6b
EndChar

StartChar: _.kaf.fina.fa
Encoding: 65572 -1 36
GlifName: _.kaf.fina.fa
Width: 1087
VWidth: 1304
GlyphClass: 1
UnlinkRmOvrlpSave: 1
Flags: HMW
LayerCount: 2
Fore
SplineSet
90 186 m 0
 90 235 105 297 136 374 c 1
 218 349 l 1
 196 290 183 245 183 209 c 0
 183 125 254 100 447 100 c 2
 600 100 l 2
 723 100 754 134 755 181 c 0
 755 315 531 457 498 479 c 1
 515 577 516 593 557 618 c 0
 653 675 811 748 946 800 c 1
 946 697 l 1
 840 661 697 591 597 533 c 1
 661 489 714 444 753 400 c 0
 824 326 877 254 946 178 c 0
 988 134 1019 100 1087 100 c 1
 1087 0 l 1
 964 0 908 63 850 139 c 1
 832 57 754 0 616 0 c 2
 444 0 l 2
 237 0 90 29 90 186 c 0
EndSplineSet
Colour: ffda6b
EndChar

StartChar: _.kaf.fina.ar
Encoding: 65573 -1 37
GlifName: _.kaf.fina.ar
Width: 911
VWidth: 1304
GlyphClass: 1
UnlinkRmOvrlpSave: 1
Flags: HMW
LayerCount: 2
Fore
SplineSet
911 -3 m 1
 811 -3 768 16 726 64 c 1
 705 31 676 12 639 7 c 0
 542 -9 442 -17 337 -17 c 0
 234 -17 152 -2 90 28 c 1
 122 117 l 1
 172 95 245 82 341 82 c 0
 436 82 522 87 600 97 c 0
 653 104 678 141 678 209 c 2
 678 761 l 1
 760 761 l 1
 760 246 l 2
 760 175 773 123 825 109 c 0
 850 102 878 98 911 98 c 1
 911 -3 l 1
EndSplineSet
Colour: ffda6b
EndChar

StartChar: _.kaf.medi
Encoding: 65574 -1 38
GlifName: _.kaf.medi
Width: 634
VWidth: 1304
GlyphClass: 1
UnlinkRmOvrlpSave: 1
Flags: HMW
LayerCount: 2
Fore
SplineSet
-50 50 m 0
 -50 76 -25 100 0 100 c 2
 147 100 l 2
 270 100 302 130 302 178 c 0
 302 320 78 457 45 479 c 1
 62 577 63 593 104 618 c 0
 200 675 358 748 493 800 c 1
 493 697 l 1
 386 661 240 590 142 532 c 1
 184 502 231 467 273 428 c 0
 359 344 415 263 493 178 c 0
 534 134 565 100 634 100 c 1
 634 -0 l 1
 510 0 455 63 396 139 c 1
 375 57 290 0 163 -0 c 2
 0 -0 l 2
 -25 0 -50 24 -50 50 c 0
EndSplineSet
Colour: ffda6b
EndChar

StartChar: _.kaf.init
Encoding: 65575 -1 39
GlifName: _.kaf.init
Width: 583
VWidth: 1304
GlyphClass: 1
UnlinkRmOvrlpSave: 1
Flags: HMW
LayerCount: 2
Fore
SplineSet
-50 50 m 0
 -50 76 -25 100 0 100 c 2
 147 100 l 2
 270 100 302 130 302 178 c 0
 302 320 78 457 45 479 c 1
 62 577 63 593 104 618 c 0
 200 675 358 748 493 800 c 1
 493 697 l 1
 386 661 240 590 142 532 c 1
 252 454 401 341 401 180 c 0
 401 75 311 0 163 -0 c 2
 0 -0 l 2
 -25 0 -50 24 -50 50 c 0
EndSplineSet
Colour: ffda6b
EndChar

StartChar: _.kaf_hamze.isol.ar
Encoding: 65576 -1 40
GlifName: _.kaf_hamze.isol.ar
Width: 430
VWidth: 1304
GlyphClass: 1
UnlinkRmOvrlpSave: 1
Flags: HMW
LayerCount: 2
Fore
SplineSet
90 306 m 0
 90 323 97 340 110 343 c 0
 121 343 257 349 257 385 c 0
 257 395 148 415 148 493 c 0
 148 566 256 610 318 610 c 2
 319 610 l 2
 334 610 340 596 340 580 c 0
 340 562 332 543 318 543 c 0
 291 543 205 530 205 493 c 0
 205 487 214 480 230 473 c 0
 267 455 313 435 313 386 c 0
 313 313 167 274 110 274 c 0
 96 275 90 290 90 306 c 0
EndSplineSet
Colour: ffda6b
EndChar

StartChar: _.ghaf.isol
Encoding: 65577 -1 41
GlifName: _.ghaf.isol
Width: 1036
VWidth: 0
GlyphClass: 1
UnlinkRmOvrlpSave: 1
Flags: HMW
LayerCount: 2
Fore
SplineSet
90 186 m 0
 90 235 105 297 136 374 c 1
 218 349 l 1
 196 290 183 245 183 209 c 0
 183 125 254 100 447 100 c 2
 600 100 l 2
 723 100 754 134 755 181 c 0
 755 315 531 457 498 479 c 1
 515 577 516 593 557 618 c 0
 653 675 811 748 946 800 c 1
 946 697 l 1
 840 661 697 591 597 533 c 1
 772 410 854 291 854 180 c 0
 854 75 775 0 616 0 c 2
 444 0 l 2
 237 0 90 29 90 186 c 0
517 757 m 1
 861 923 l 1
 861 860 l 1
 524 695 l 1
 517 757 l 1
EndSplineSet
Colour: ffda6b
EndChar

StartChar: _.ghaf.fina
Encoding: 65578 -1 42
GlifName: _.ghaf.fina
Width: 1087
VWidth: 0
GlyphClass: 1
Flags: HMW
LayerCount: 2
Fore
SplineSet
90 186 m 0
 90 235 105 297 136 374 c 1
 218 349 l 1
 196 290 183 245 183 209 c 0
 183 125 254 100 447 100 c 2
 600 100 l 2
 723 100 754 134 755 181 c 0
 755 315 531 457 498 479 c 1
 515 577 516 593 557 618 c 0
 653 675 811 748 946 800 c 1
 946 697 l 1
 840 661 697 591 597 533 c 1
 647 497 692 462 726 428 c 0
 812 344 868 263 946 178 c 0
 987 134 1018 100 1087 100 c 1
 1087 0 l 1
 963 0 908 63 849 139 c 1
 831 55 753 0 616 0 c 2
 444 0 l 2
 237 0 90 29 90 186 c 0
517 757 m 1
 861 923 l 1
 861 860 l 1
 524 695 l 1
 517 757 l 1
EndSplineSet
Colour: ffda6b
EndChar

StartChar: _.lam.isol
Encoding: 65580 -1 44
GlifName: _.lam.isol
Width: 868
VWidth: 1304
GlyphClass: 1
UnlinkRmOvrlpSave: 1
Flags: HMW
LayerCount: 2
Fore
SplineSet
185 -32 m 0
 185 -117 242 -180 381 -180 c 0
 516 -180 670 -95 680 -1 c 1
 680 800 l 1
 778 800 l 1
 778 -6 l 1
 760 -176 558 -281 377 -281 c 0
 226 -280 90 -209 90 -47 c 0
 90 30 136 127 163 182 c 1
 243 149 l 1
 208 86 185 23 185 -32 c 0
EndSplineSet
Colour: ffda6b
EndChar

StartChar: _.lam.fina
Encoding: 65581 -1 45
GlifName: _.lam.fina
Width: 921
VWidth: 1304
GlyphClass: 1
UnlinkRmOvrlpSave: 1
Flags: HMW
LayerCount: 2
Fore
SplineSet
185 -32 m 0
 185 -117 242 -180 381 -180 c 0
 516 -180 670 -95 680 -1 c 1
 680 800 l 1
 778 800 l 1
 778 184 l 2
 778 116 849 100 906 100 c 2
 921 100 l 1
 921 0 l 1
 906 0 l 2
 854 0 811 8 778 24 c 1
 778 20 l 2
 778 13 779 4 778 -3 c 1
 778 -6 l 1
 760 -176 558 -281 377 -281 c 0
 226 -280 90 -209 90 -47 c 0
 90 30 136 127 163 182 c 1
 243 149 l 1
 208 86 185 23 185 -32 c 0
EndSplineSet
Colour: ffda6b
EndChar

StartChar: _.lam.medi
Encoding: 65582 -1 46
GlifName: _.lam.medi
Width: 403
VWidth: 1304
GlyphClass: 1
UnlinkRmOvrlpSave: 1
Flags: HMW
LayerCount: 2
Fore
SplineSet
216 56 m 1
 178 18 121 0 42 -0 c 2
 0 -0 l 2
 -26 0 -50 24 -50 50 c 0
 -50 76 -26 100 0 100 c 2
 42 100 l 2
 99 100 170 116 170 184 c 2
 170 800 l 1
 260 800 l 1
 260 184 l 2
 260 116 331 100 388 100 c 2
 403 100 l 1
 403 -0 l 1
 388 -0 l 2
 309 0 253 18 216 55 c 1
 216 56 l 1
EndSplineSet
Colour: ffda6b
EndChar

StartChar: _.lam.init
Encoding: 65583 -1 47
GlifName: _.lam.init
Width: 350
VWidth: 1304
GlyphClass: 1
UnlinkRmOvrlpSave: 1
Flags: HMW
LayerCount: 2
Fore
SplineSet
-50 50 m 0
 -50 75 -26 100 -1 100 c 2
 42 100 l 2
 97 100 161 111 161 193 c 2
 161 800 l 1
 260 800 l 1
 260 194 l 2
 260 89 211 0 51 -0 c 2
 -1 -0 l 1
 -26 1 -50 24 -50 50 c 0
EndSplineSet
Colour: ffda6b
EndChar

StartChar: _.mim.isol
Encoding: 65584 -1 48
GlifName: _.mim.isol
Width: 772
VWidth: 1304
GlyphClass: 1
UnlinkRmOvrlpSave: 1
Flags: HMW
LayerCount: 2
Fore
SplineSet
90 -15 m 0
 90 92 153 173 248 194 c 1
 270 238 302 285 322 316 c 0
 382 412 448 451 508 451 c 0
 604 451 682 351 682 226 c 0
 682 172 667 112 632 55 c 1
 615 18 578 0 545 0 c 0
 532 0 520 2 510 8 c 2
 409 61 l 2
 368 83 331 92 299 92 c 0
 228 92 182 49 182 1 c 0
 182 -2 183 -3 183 -6 c 2
 217 -351 l 1
 131 -397 l 1
 92 -47 l 2
 91 -36 90 -25 90 -15 c 0
366 199 m 1
 545 104 l 1
 570 137 581 179 581 219 c 0
 581 288 549 351 503 351 c 0
 477 351 445 330 414 277 c 0
 397 249 382 224 366 199 c 1
EndSplineSet
Colour: ffda6b
EndChar

StartChar: _.mim.fina
Encoding: 65585 -1 49
GlifName: _.mim.fina
Width: 836
VWidth: 1304
GlyphClass: 1
UnlinkRmOvrlpSave: 1
Flags: HMW
LayerCount: 2
Fore
SplineSet
496 -116 m 0
 379 -116 299 6 299 130 c 0
 299 149 301 168 305 188 c 1
 294 183 283 180 273 175 c 0
 219 150 181 121 183 93 c 1
 232 -351 l 1
 146 -397 l 1
 92 53 l 2
 91 63 90 71 90 80 c 0
 90 243 290 299 444 331 c 0
 446 331 450 332 452 332 c 1
 443 351 l 1
 505 444 l 1
 630 228 l 2
 680 141 729 100 836 100 c 1
 836 0 l 1
 767 0 714 11 668 37 c 1
 629 -72 562 -116 496 -116 c 0
398 136 m 0
 398 94 410 54 431 26 c 0
 449 0 471 -15 493 -15 c 0
 522 -15 552 11 575 72 c 0
 580 84 584 97 589 108 c 1
 577 124 564 143 552 164 c 2
 508 239 l 1
 482 237 451 230 419 223 c 1
 404 196 398 166 398 136 c 0
EndSplineSet
Colour: ffda6b
EndChar

StartChar: _.mim.medi
Encoding: 65586 -1 50
GlifName: _.mim.medi
Width: 745
VWidth: 1304
GlyphClass: 1
UnlinkRmOvrlpSave: 1
Flags: HMW
LayerCount: 2
Fore
SplineSet
-50 49 m 0
 -50 76 -27 100 -1 100 c 0
 134 100 179 179 223 250 c 0
 282 346 350 384 409 384 c 0
 498 384 572 297 582 184 c 1
 594 118 653 100 710 100 c 2
 745 100 l 1
 745 -0 l 1
 710 -0 l 2
 645 0 594 12 558 38 c 1
 551 21 544 5 534 -11 c 0
 517 -49 478 -67 445 -67 c 0
 432 -67 420 -64 410 -59 c 2
 196 55 l 1
 150 19 90 0 -1 -0 c 0
 -25 0 -50 24 -50 49 c 0
265 132 m 1
 446 38 l 1
 471 70 482 111 482 151 c 0
 482 220 449 284 403 284 c 0
 377 284 345 263 314 210 c 0
 298 182 282 155 265 132 c 1
EndSplineSet
Colour: ffda6b
EndChar

StartChar: _.mim.init
Encoding: 65587 -1 51
GlifName: _.mim.init
Width: 673
VWidth: 1304
GlyphClass: 1
UnlinkRmOvrlpSave: 1
Flags: HMW
LayerCount: 2
Fore
SplineSet
-50 49 m 0
 -50 76 -27 100 -1 100 c 0
 134 100 179 179 223 250 c 0
 283 346 350 384 409 384 c 0
 505 384 583 283 583 159 c 0
 583 105 569 46 534 -11 c 1
 517 -49 478 -67 445 -67 c 0
 432 -67 420 -64 410 -59 c 2
 196 55 l 1
 150 19 90 0 -1 -0 c 0
 -25 0 -50 24 -50 49 c 0
265 132 m 1
 446 38 l 1
 471 70 482 111 482 151 c 0
 482 220 449 284 403 284 c 0
 377 284 345 263 314 210 c 0
 298 182 282 155 265 132 c 1
EndSplineSet
Colour: ffda6b
EndChar

StartChar: _.nun.isol
Encoding: 65588 -1 52
GlifName: _.nun.isol
Width: 899
VWidth: 1305
GlyphClass: 1
UnlinkRmOvrlpSave: 1
Flags: HMW
LayerCount: 2
Fore
SplineSet
90 -6 m 0
 90 70 135 166 163 221 c 1
 243 189 l 1
 216 137 189 58 189 3 c 0
 189 -100 279 -139 389 -139 c 0
 526 -139 710 -45 710 49 c 0
 710 52 709 55 709 58 c 0
 703 108 673 190 619 285 c 1
 706 348 l 1
 776 219 809 137 809 50 c 0
 809 -136 587 -239 389 -239 c 2
 385 -239 l 2
 230 -239 90 -168 90 -6 c 0
EndSplineSet
Colour: ffda6b
EndChar

StartChar: _.nun.fina
Encoding: 65589 -1 53
GlifName: _.nun.fina
Width: 972
VWidth: 1413
GlyphClass: 1
UnlinkRmOvrlpSave: 1
Flags: HMW
LayerCount: 2
Fore
SplineSet
809 10 m 0
 809 -176 585 -280 385 -280 c 0
 230 -280 90 -209 90 -47 c 0
 90 30 134 127 161 182 c 1
 243 149 l 1
 216 96 187 15 187 -40 c 0
 188 -141 281 -179 389 -179 c 0
 390 -179 391 -179 392 -179 c 0
 528 -179 710 -85 710 9 c 0
 710 12 709 15 709 18 c 0
 703 68 673 150 618 246 c 1
 706 309 l 1
 717 289 726 269 735 252 c 0
 768 195 835 100 972 100 c 1
 972 0 l 1
 894 0 840 14 808 42 c 1
 808 31 809 21 809 10 c 0
EndSplineSet
Colour: ffda6b
EndChar

StartChar: _.vav.isol
Encoding: 65590 -1 54
GlifName: _.vav.isol
Width: 606
VWidth: 1304
GlyphClass: 1
UnlinkRmOvrlpSave: 1
Flags: HMW
LayerCount: 2
Fore
SplineSet
90 -244 m 1
 220 -210 392 -104 415 4 c 0
 415 9 415 15 414 20 c 1
 384 9 343 0 301 0 c 0
 299 0 297 0 295 0 c 0
 169 0 124 89 124 184 c 0
 124 290 192 400 303 400 c 0
 454 400 515 200 516 44 c 0
 515 -130 341 -278 113 -340 c 1
 90 -244 l 1
312 101 m 2
 321 101 l 2
 352 101 386 110 406 119 c 1
 386 248 335 300 294 300 c 0
 257 300 224 242 224 188 c 0
 224 143 241 101 312 101 c 2
EndSplineSet
Colour: ffda6b
EndChar

StartChar: _.vav.fina
Encoding: 65591 -1 55
GlifName: _.vav.fina
Width: 614
VWidth: 1304
GlyphClass: 1
UnlinkRmOvrlpSave: 1
Flags: HMW
LayerCount: 2
Fore
SplineSet
90 -244 m 1
 219 -210 388 -107 414 0 c 1
 301 0 l 2
 171 0 124 88 124 184 c 0
 124 290 192 400 303 400 c 0
 437 400 500 244 512 100 c 1
 614 100 l 1
 614 0 l 1
 511 0 l 1
 485 -154 321 -283 113 -340 c 1
 90 -244 l 1
224 188 m 0
 224 142 241 100 315 100 c 2
 409 100 l 1
 392 244 336 300 294 300 c 0
 257 300 224 242 224 188 c 0
EndSplineSet
Colour: ffda6b
EndChar

StartChar: _.dal.isol
Encoding: 65592 -1 56
GlifName: _.dal.isol
Width: 632
VWidth: 1304
GlyphClass: 1
UnlinkRmOvrlpSave: 1
Flags: HMW
LayerCount: 2
Fore
SplineSet
90 47 m 1
 118 143 l 1
 164 115 232 100 294 100 c 0
 368 100 433 121 443 165 c 1
 442 203 414 323 190 439 c 1
 232 539 l 1
 486 417 542 263 542 181 c 0
 542 142 527 87 501 66 c 1
 456 18 375 0 295 0 c 0
 213 0 132 20 90 47 c 1
EndSplineSet
Colour: ffda6b
EndChar

StartChar: _.dal.fina
Encoding: 65593 -1 57
GlifName: _.dal.fina
Width: 713
VWidth: 1304
GlyphClass: 1
UnlinkRmOvrlpSave: 1
Flags: HMW
LayerCount: 2
Fore
SplineSet
90 47 m 1
 118 143 l 1
 164 115 232 100 294 100 c 0
 364 100 428 119 442 159 c 1
 298 474 l 1
 382 532 l 1
 517 234 l 2
 558 143 596 100 713 100 c 1
 713 0 l 1
 631 0 555 16 501 66 c 1
 456 18 375 0 295 0 c 0
 213 0 132 20 90 47 c 1
EndSplineSet
Colour: ffda6b
EndChar

StartChar: _.ree.isol
Encoding: 65594 -1 58
GlifName: _.ree.isol
Width: 606
VWidth: 1304
GlyphClass: 1
UnlinkRmOvrlpSave: 1
Flags: HMW
LayerCount: 2
Fore
SplineSet
90 -244 m 1
 249 -201 416 -81 417 0 c 0
 417 6 419 15 419 27 c 0
 419 65 408 135 331 271 c 1
 416 332 l 1
 479 221 516 124 516 13 c 0
 516 -151 315 -280 113 -340 c 1
 90 -244 l 1
EndSplineSet
Colour: ffda6b
EndChar

StartChar: _.ree.fina
Encoding: 65595 -1 59
GlifName: _.ree.fina
Width: 683
VWidth: 1304
GlyphClass: 1
UnlinkRmOvrlpSave: 1
Flags: HMW
LayerCount: 2
Fore
SplineSet
90 -244 m 1
 249 -201 416 -81 417 0 c 0
 417 6 419 13 419 23 c 0
 419 54 408 113 331 251 c 1
 416 311 l 1
 431 285 445 260 456 237 c 0
 493 180 557 100 683 100 c 1
 683 0 l 1
 602 0 545 16 513 47 c 1
 514 36 515 25 515 12 c 0
 515 -151 314 -280 113 -340 c 1
 90 -244 l 1
EndSplineSet
Colour: ffda6b
EndChar

StartChar: _.he8.isol
Encoding: 65596 -1 60
GlifName: _.he8.isol
Width: 581
VWidth: 1304
GlyphClass: 1
UnlinkRmOvrlpSave: 1
Flags: HMW
LayerCount: 2
Fore
SplineSet
90 161 m 0
 90 228 125 315 209 418 c 1
 196 429 183 439 169 450 c 1
 242 527 l 1
 419 373 491 278 491 160 c 0
 491 47 385 0 290 0 c 0
 174 0 90 57 90 161 c 0
190 179 m 0
 190 129 226 100 290 100 c 0
 334 100 391 119 391 175 c 0
 391 215 361 274 277 356 c 1
 218 284 190 223 190 179 c 0
EndSplineSet
Colour: ffda6b
EndChar

StartChar: _.he8.fina
Encoding: 65597 -1 61
GlifName: _.he8.fina
Width: 637
VWidth: 1304
GlyphClass: 1
UnlinkRmOvrlpSave: 1
Flags: HMW
LayerCount: 2
Fore
SplineSet
90 226 m 0
 90 319 170 390 347 439 c 1
 338 500 l 1
 432 543 l 1
 476 231 l 1
 485 178 516 100 637 100 c 1
 637 0 l 1
 516 0 452 50 419 97 c 1
 383 91 348 89 316 89 c 0
 199 89 114 123 98 172 c 0
 93 191 90 209 90 226 c 0
186 219 m 1
 199 202 250 188 319 188 c 0
 339 188 360 190 382 192 c 1
 362 336 l 1
 223 292 190 272 186 219 c 1
EndSplineSet
Colour: ffda6b
EndChar

StartChar: _.he8.medi
Encoding: 65598 -1 62
GlifName: _.he8.medi
Width: 600
VWidth: 1304
GlyphClass: 1
UnlinkRmOvrlpSave: 1
Flags: HMW
LayerCount: 2
Fore
SplineSet
250 477 m 0
 327 477 406 307 406 185 c 0
 406 139 394 98 367 77 c 0
 315 36 261 16 197 7 c 1
 245 -67 344 -127 396 -143 c 1
 382 -133 372 -102 372 -65 c 0
 372 7 410 100 529 100 c 2
 600 100 l 1
 600 -0 l 1
 546 -0 l 2
 487 0 466 -34 466 -74 c 0
 466 -120 494 -175 526 -197 c 1
 500 -291 l 1
 313 -237 152 -144 95 -0 c 1
 -4 -0 l 1
 -27 2 -50 25 -50 50 c 0
 -50 75 -27 98 -4 100 c 1
 73 100 l 1
 72 111 72 122 72 133 c 0
 72 312 175 477 250 477 c 0
163 146 m 0
 163 132 164 118 166 103 c 1
 232 109 273 123 306 152 c 0
 312 157 314 167 314 180 c 0
 314 238 263 357 245 362 c 1
 206 318 163 248 163 146 c 0
EndSplineSet
Colour: ffda6b
EndChar

StartChar: _.he8.init
Encoding: 65599 -1 63
GlifName: _.he8.init
Width: 740
VWidth: 1304
GlyphClass: 1
UnlinkRmOvrlpSave: 1
Flags: HMW
LayerCount: 2
Fore
SplineSet
-50 49 m 0
 -50 76 -27 100 -1 100 c 2
 100 100 l 2
 123 100 149 103 172 109 c 1
 123 145 90 191 90 248 c 0
 90 269 94 291 104 315 c 0
 123 363 164 414 211 445 c 1
 197 451 184 456 175 460 c 1
 206 554 l 1
 362 489 650 368 650 180 c 0
 650 130 629 75 580 15 c 0
 573 6 550 1 517 1 c 0
 458 1 368 16 285 48 c 1
 237 17 181 0 127 -0 c 2
 -1 -0 l 2
 -25 0 -50 24 -50 49 c 0
278 161 m 1
 310 189 336 223 336 274 c 0
 336 344 311 372 279 372 c 0
 243 372 198 334 178 278 c 0
 176 272 175 267 175 261 c 0
 175 223 220 189 278 161 c 1
423 294 m 0
 423 225 397 169 367 128 c 1
 420 112 471 102 503 102 c 0
 519 102 531 104 535 109 c 0
 553 129 560 151 560 171 c 0
 560 229 497 287 420 336 c 1
 422 322 423 308 423 294 c 0
EndSplineSet
Colour: ffda6b
EndChar

StartChar: _.yeh.fina
Encoding: 65600 -1 64
GlifName: _.yeh.fina
Width: 895
VWidth: 1304
GlyphClass: 1
UnlinkRmOvrlpSave: 1
Flags: HMW
LayerCount: 2
Fore
SplineSet
90 -58 m 0
 90 44 166 222 193 263 c 1
 285 226 l 1
 245 159 191 37 191 -48 c 0
 191 -157 287 -199 395 -199 c 0
 518 -199 658 -146 696 -77 c 0
 698 -73 701 -66 701 -59 c 0
 701 -30 662 16 515 53 c 1
 545 154 l 1
 652 116 799 100 895 100 c 1
 895 0 l 1
 841 0 792 3 769 13 c 1
 790 -8 804 -39 803 -69 c 1
 803 -70 l 1
 775 -208 571 -303 389 -303 c 0
 232 -303 90 -232 90 -58 c 0
EndSplineSet
Colour: ffda6b
EndChar

StartChar: _.yeh.isol
Encoding: 65601 -1 65
GlifName: _.yeh.isol
Width: 1063
VWidth: 1304
GlyphClass: 1
UnlinkRmOvrlpSave: 1
Flags: HMW
LayerCount: 2
Fore
SplineSet
285 287 m 1
 245 219 192 98 192 12 c 0
 192 -97 287 -139 395 -139 c 0
 514 -139 649 -89 692 -24 c 0
 696 -17 699 -10 699 -4 c 0
 699 42 595 75 526 103 c 0
 498 114 478 140 478 181 c 0
 478 206 486 238 504 276 c 0
 553 380 663 465 774 465 c 0
 846 465 918 429 973 338 c 1
 893 277 l 1
 859 327 814 346 770 346 c 0
 708 346 647 308 618 260 c 0
 601 233 593 217 593 207 c 0
 593 198 599 194 612 189 c 0
 696 151 808 111 808 19 c 0
 808 -19 795 -52 765 -90 c 0
 692 -183 534 -243 389 -243 c 0
 232 -243 90 -172 90 3 c 0
 90 105 167 282 192 324 c 1
 285 287 l 1
EndSplineSet
Colour: ffda6b
EndChar

StartChar: _.hamze.isol
Encoding: 65602 -1 66
GlifName: _.hamze.isol
Width: 511
VWidth: 1304
GlyphClass: 2
Flags: HMW
LayerCount: 2
Fore
SplineSet
200 230 m 0
 200 210 224 170 246 170 c 0
 253 170 267 174 288 180 c 0
 308 187 347 194 406 204 c 1
 421 107 l 1
 350 93 310 86 304 84 c 0
 254 68 196 40 131 -1 c 1
 90 86 l 1
 129 109 153 123 160 127 c 1
 124 162 109 201 109 238 c 0
 109 316 176 384 259 384 c 0
 296 384 337 370 376 338 c 1
 323 263 l 1
 304 279 283 286 265 286 c 0
 229 286 200 261 200 230 c 0
EndSplineSet
Colour: ffda6b
EndChar

StartChar: _.keshide.medi
Encoding: 65603 -1 67
GlifName: _.keshide.medi
Width: 350
VWidth: 1304
GlyphClass: 2
Flags: HMW
LayerCount: 2
Fore
SplineSet
-50 -0 m 1
 -50 100 l 1
 350 100 l 1
 350 -0 l 1
 -50 -0 l 1
EndSplineSet
Colour: ffda6b
EndChar

StartChar: _.dot.1u
Encoding: 65604 -1 68
GlifName: _.dot.1u
Width: 0
VWidth: 1304
GlyphClass: 2
Flags: HMW
LayerCount: 2
Fore
SplineSet
0 84 m 1
 82 165 l 1
 165 82 l 1
 82 -0 l 1
 0 84 l 1
EndSplineSet
Colour: ffda6b
EndChar

StartChar: _.dot.2u
Encoding: 65605 -1 69
GlifName: _.dot.2u
Width: 0
VWidth: 1304
GlyphClass: 2
UnlinkRmOvrlpSave: 1
Flags: HMW
LayerCount: 2
Fore
SplineSet
0 79 m 1
 78 156 l 1
 155 79 l 1
 78 1 l 1
 0 79 l 1
191 79 m 1
 267 156 l 1
 345 79 l 1
 268 1 l 1
 191 79 l 1
EndSplineSet
Colour: ffda6b
EndChar

StartChar: _.dot.3u
Encoding: 65606 -1 70
GlifName: _.dot.3u
Width: 0
VWidth: 1304
GlyphClass: 2
UnlinkRmOvrlpSave: 1
Flags: HMW
LayerCount: 2
Fore
SplineSet
0 79 m 1
 78 156 l 1
 155 79 l 1
 78 1 l 1
 0 79 l 1
107 205 m 1
 172 269 l 1
 238 205 l 1
 172 140 l 1
 107 205 l 1
191 79 m 1
 267 156 l 1
 345 79 l 1
 268 1 l 1
 191 79 l 1
EndSplineSet
Colour: ffda6b
EndChar

StartChar: _.dot.1d
Encoding: 65607 -1 71
GlifName: _.dot.1d
Width: 0
VWidth: 1304
GlyphClass: 2
Flags: HMW
LayerCount: 2
Fore
SplineSet
0 -85 m 1
 82 -3 l 1
 165 -85 l 1
 82 -168 l 1
 0 -85 l 1
EndSplineSet
Colour: ffda6b
EndChar

StartChar: _.dot.2d
Encoding: 65608 -1 72
GlifName: _.dot.2d
Width: 0
VWidth: 1304
GlyphClass: 2
UnlinkRmOvrlpSave: 1
Flags: HMW
LayerCount: 2
Fore
SplineSet
0 -78 m 1
 78 -0 l 1
 155 -78 l 1
 78 -155 l 1
 0 -78 l 1
191 -78 m 1
 267 -0 l 1
 345 -78 l 1
 268 -155 l 1
 191 -78 l 1
EndSplineSet
Colour: ffda6b
EndChar

StartChar: _.dot.3d
Encoding: 65609 -1 73
GlifName: _.dot.3d
Width: 0
VWidth: 1304
GlyphClass: 2
UnlinkRmOvrlpSave: 1
Flags: HMW
LayerCount: 2
Fore
SplineSet
0 -78 m 1
 78 -0 l 1
 155 -78 l 1
 78 -155 l 1
 0 -78 l 1
108 -191 m 1
 174 -126 l 1
 239 -191 l 1
 174 -256 l 1
 108 -191 l 1
191 -78 m 1
 267 -0 l 1
 345 -78 l 1
 268 -155 l 1
 191 -78 l 1
EndSplineSet
Colour: ffda6b
EndChar

StartChar: _.num.0.fa
Encoding: 65611 -1 75
GlifName: _.num.0
Width: 468
VWidth: 1424
GlyphClass: 2
Flags: HMW
LayerCount: 2
Fore
SplineSet
90 305 m 0
 90 390 145 465 234 465 c 0
 318 465 378 394 378 314 c 0
 378 233 318 162 234 162 c 0
 155 162 90 225 90 305 c 0
163 310 m 0
 163 277 186 245 234 244 c 0
 281 244 304 278 304 312 c 0
 304 346 280 380 234 380 c 0
 188 380 163 345 163 310 c 0
EndSplineSet
Colour: ffda6b
EndChar

StartChar: _.num.1
Encoding: 65612 -1 76
GlifName: _.num.1
Width: 448
VWidth: 1331
GlyphClass: 2
Flags: HMW
LayerCount: 2
Fore
SplineSet
90 645 m 1
 165 698 l 1
 314 511 358 275 358 -8 c 1
 269 -8 l 1
 263 267 223 485 90 645 c 1
EndSplineSet
Colour: ffda6b
EndChar

StartChar: _.num.2
Encoding: 65613 -1 77
GlifName: _.num.2
Width: 706
VWidth: 1331
GlyphClass: 2
Flags: HMW
LayerCount: 2
Fore
SplineSet
90 639 m 1
 165 695 l 1
 246 613 315 533 373 533 c 0
 439 533 489 615 522 700 c 1
 616 670 l 1
 561 538 480 433 378 433 c 0
 344 433 316 441 304 450 c 1
 366 324 398 175 398 0 c 1
 304 0 l 1
 304 228 233 441 90 639 c 1
EndSplineSet
Colour: ffda6b
EndChar

StartChar: _.num.3
Encoding: 65614 -1 78
GlifName: _.num.3
Width: 793
VWidth: 1331
GlyphClass: 2
Flags: HMW
LayerCount: 2
Fore
SplineSet
90 644 m 1
 164 699 l 1
 217 613 268 570 317 570 c 0
 364 570 388 611 388 695 c 1
 480 695 l 1
 487 617 508 578 544 578 c 0
 586 578 608 617 610 695 c 1
 703 695 l 1
 703 552 650 481 544 481 c 0
 497 481 460 502 433 544 c 1
 413 501 380 480 336 480 c 0
 311 480 291 487 275 503 c 1
 346 358 382 190 382 -1 c 1
 288 -1 l 1
 288 182 222 398 90 644 c 1
EndSplineSet
Colour: ffda6b
EndChar

StartChar: _.num.4.fa
Encoding: 65615 -1 79
GlifName: _.num.4.fa
Width: 748
VWidth: 1331
GlyphClass: 2
Flags: HMW
LayerCount: 2
Fore
SplineSet
490 447 m 0
 527 447 569 459 630 487 c 1
 658 402 l 1
 584 371 513 352 438 352 c 0
 402 352 365 357 326 367 c 1
 374 261 401 150 401 -6 c 1
 307 -6 l 1
 307 181 235 378 90 589 c 1
 165 647 l 1
 208 578 247 517 280 458 c 1
 295 452 316 447 344 445 c 1
 331 477 324 509 324 538 c 0
 324 628 384 699 479 699 c 0
 512 699 549 691 589 672 c 1
 585 589 l 1
 552 601 524 606 501 606 c 0
 437 606 409 568 409 529 c 0
 409 488 439 447 490 447 c 0
EndSplineSet
Colour: ffda6b
EndChar

StartChar: _.num.4.ar
Encoding: 65616 -1 80
GlifName: _.num.4.ar
Width: 499
VWidth: 1331
GlyphClass: 2
Flags: HMW
LayerCount: 2
Fore
SplineSet
90 506 m 0
 90 593 261 667 346 697 c 1
 381 605 l 1
 350 595 182 526 182 505 c 0
 182 474 341 406 371 394 c 1
 267 304 188 245 188 200 c 0
 188 160 250 132 409 101 c 1
 395 4 l 1
 297 13 94 56 94 166 c 0
 94 224 134 292 214 367 c 1
 132 414 90 460 90 506 c 0
EndSplineSet
Colour: ffda6b
EndChar

StartChar: _.num.5.fa
Encoding: 65617 -1 81
GlifName: _.num.5.fa
Width: 702
VWidth: 1331
GlyphClass: 2
Flags: HMW
LayerCount: 2
Fore
SplineSet
90 136 m 0
 90 286 236 518 281 589 c 1
 239 625 l 1
 298 700 l 1
 472 563 612 411 612 194 c 0
 612 110 578 4 461 4 c 0
 414 4 376 19 350 55 c 1
 320 22 289 4 239 4 c 0
 128 4 90 59 90 136 c 0
184 160 m 0
 184 127 199 106 236 106 c 0
 296 106 305 172 311 214 c 1
 402 214 l 1
 406 182 409 106 461 106 c 0
 499 106 519 135 519 194 c 0
 519 323 450 428 355 523 c 1
 333 490 184 265 184 160 c 0
EndSplineSet
Colour: ffda6b
EndChar

StartChar: _.num.5.ar
Encoding: 65618 -1 82
GlifName: _.num.5.ar
Width: 729
VWidth: 1331
GlyphClass: 2
Flags: HMW
LayerCount: 2
Fore
SplineSet
90 250 m 0
 90 390 176 507 351 601 c 1
 356 601 l 1
 544 519 639 397 639 237 c 0
 639 76 545 -4 358 -4 c 0
 178 -4 90 81 90 250 c 0
193 250 m 0
 193 147 248 93 356 93 c 0
 477 93 537 145 537 250 c 0
 537 339 477 416 356 485 c 1
 248 405 193 328 193 250 c 0
EndSplineSet
Colour: ffda6b
EndChar

StartChar: _.num.6.fa
Encoding: 65619 -1 83
GlifName: _.num.6.fa
Width: 754
VWidth: 1331
GlyphClass: 2
Flags: HMW
LayerCount: 2
Fore
SplineSet
90 70 m 1
 219 218 301 305 337 333 c 1
 215 357 163 430 163 504 c 0
 163 600 251 699 389 699 c 0
 441 699 499 685 563 652 c 1
 528 560 l 1
 478 585 434 595 398 595 c 0
 323 595 280 552 280 508 c 0
 280 463 326 417 430 417 c 0
 464 417 530 436 628 474 c 1
 664 383 l 1
 488 320 326 192 180 0 c 1
 90 70 l 1
EndSplineSet
Colour: ffda6b
EndChar

StartChar: _.num.6.ar
Encoding: 65620 -1 84
GlifName: _.num.6.ar
Width: 744
VWidth: 1331
GlyphClass: 2
Flags: HMW
LayerCount: 2
Fore
SplineSet
90 618 m 1
 160 699 l 1
 206 659 265 644 327 644 c 0
 411 644 501 670 574 693 c 1
 574 677 l 1
 562 609 537 488 537 372 c 0
 537 254 563 141 654 97 c 1
 605 0 l 1
 595 5 l 2
 467 68 434 229 434 374 c 0
 434 441 441 504 448 553 c 1
 392 542 344 534 300 534 c 0
 226 534 162 556 90 618 c 1
EndSplineSet
Colour: ffda6b
EndChar

StartChar: _.num.7
Encoding: 65621 -1 85
GlifName: _.num.7
Width: 814
VWidth: 1331
GlyphClass: 2
Flags: HMW
LayerCount: 2
Fore
SplineSet
90 635 m 1
 170 695 l 1
 292 531 372 337 408 191 c 1
 447 344 526 533 645 695 c 1
 724 634 l 1
 632 507 542 295 457 0 c 1
 358 0 l 1
 310 222 220 433 90 635 c 1
EndSplineSet
Colour: ffda6b
EndChar

StartChar: _.num.8
Encoding: 65622 -1 86
GlifName: _.num.8
Width: 814
VWidth: 1331
GlyphClass: 2
Flags: HMW
LayerCount: 2
Fore
SplineSet
90 61 m 1
 220 264 310 479 358 702 c 1
 457 702 l 1
 542 404 632 190 724 61 c 1
 645 0 l 1
 526 164 447 355 408 509 c 1
 372 360 292 166 170 0 c 1
 90 61 l 1
EndSplineSet
Colour: ffda6b
EndChar

StartChar: _.num.9
Encoding: 65623 -1 87
GlifName: _.num.9
Width: 697
VWidth: 1331
GlyphClass: 2
Flags: HMW
LayerCount: 2
Fore
SplineSet
90 503 m 0
 90 583 150 702 256 702 c 0
 400 702 465 553 465 445 c 0
 465 247 512 129 607 93 c 1
 565 5 l 1
 458 52 390 184 374 337 c 1
 338 325 298 319 252 319 c 0
 144 319 90 406 90 503 c 0
184 500 m 0
 184 472 209 417 261 417 c 0
 303 417 338 425 369 441 c 1
 369 536 322 602 260 602 c 0
 205 602 184 541 184 500 c 0
EndSplineSet
Colour: ffda6b
EndChar

StartChar: _.sing.backslash
Encoding: 65624 -1 88
GlifName: _.sing.backslash
Width: 458
VWidth: 1197
GlyphClass: 2
Flags: HMW
LayerCount: 2
Fore
SplineSet
64 799 m 1
 146 799 l 1
 394 -0 l 1
 311 -0 l 1
 64 799 l 1
EndSplineSet
Colour: ffda6b
EndChar

StartChar: _.sing.slash
Encoding: 65625 -1 89
GlifName: _.sing.slash
Width: 458
VWidth: 1197
GlyphClass: 2
Flags: HMW
LayerCount: 2
Fore
SplineSet
64 -0 m 1
 311 799 l 1
 394 799 l 1
 146 -0 l 1
 64 -0 l 1
EndSplineSet
Colour: ffda6b
EndChar

StartChar: _.sing.tajob
Encoding: 65626 -1 90
GlifName: _.sing.tajob
Width: 235
VWidth: 1197
GlyphClass: 2
Flags: HMW
LayerCount: 2
Fore
SplineSet
64 18 m 1
 64 151 l 1
 171 151 l 1
 171 18 l 1
 64 18 l 1
75 271 m 1
 75 800 l 1
 171 800 l 1
 171 271 l 1
 75 271 l 1
EndSplineSet
Colour: ffda6b
EndChar

StartChar: _.sing.soal
Encoding: 65627 -1 91
GlifName: _.sing.soal
Width: 457
VWidth: 1304
GlyphClass: 2
Flags: HMW
LayerCount: 2
Fore
SplineSet
64 624 m 0
 64 721 153 800 247 800 c 0
 293 800 341 791 393 774 c 1
 368 684 l 1
 343 693 312 697 282 697 c 0
 214 697 148 675 148 629 c 0
 148 545 346 465 346 354 c 0
 346 294 340 267 307 219 c 1
 225 234 l 1
 248 277 261 314 261 347 c 0
 261 423 64 469 64 624 c 0
278 -0 m 2
 239 0 213 28 213 65 c 0
 213 104 241 132 278 132 c 0
 315 132 345 103 345 66 c 0
 345 32 317 0 283 -0 c 2
 278 -0 l 2
EndSplineSet
Colour: ffda6b
EndChar

StartChar: _.sing.beezafeh
Encoding: 65628 -1 92
GlifName: _.sing.beezafeh
Width: 800
VWidth: 1352
GlyphClass: 2
Flags: HMW
LayerCount: 2
Fore
SplineSet
64 293 m 1
 64 380 l 1
 356 380 l 1
 356 672 l 1
 444 672 l 1
 444 380 l 1
 736 380 l 1
 736 293 l 1
 444 293 l 1
 444 -0 l 1
 356 -0 l 1
 356 293 l 1
 64 293 l 1
EndSplineSet
Colour: ffda6b
EndChar

StartChar: _.sing.menha
Encoding: 65629 -1 93
GlifName: _.sing.menha
Width: 411
VWidth: 0
GlyphClass: 2
Flags: HMW
LayerCount: 2
Fore
SplineSet
64 205 m 1
 64 289 l 1
 347 289 l 1
 347 205 l 1
 64 205 l 1
EndSplineSet
Colour: ffda6b
EndChar

StartChar: _.sing.virgul
Encoding: 65631 -1 95
GlifName: _.sing.virgul
Width: 298
VWidth: 1197
GlyphClass: 2
Flags: HMW
LayerCount: 2
Fore
SplineSet
154 -1 m 0
 102 -1 64 49 64 112 c 0
 64 193 129 270 191 299 c 1
 234 276 l 1
 187 248 118 198 118 147 c 0
 118 141 119 134 121 128 c 1
 131 137 142 141 154 141 c 0
 201 141 227 104 227 61 c 0
 227 23 188 -1 154 -1 c 0
EndSplineSet
Colour: ffda6b
EndChar

StartChar: _.sing.dot_virgul
Encoding: 65632 -1 96
GlifName: _.sing.dot_virgul
Width: 298
VWidth: 1304
GlyphClass: 2
Flags: HMW
LayerCount: 2
Fore
SplineSet
154 267 m 0
 104 267 64 313 64 375 c 0
 64 448 107 512 191 567 c 1
 234 543 l 1
 192 518 162 496 145 475 c 0
 128 454 119 433 118 411 c 0
 118 410 119 407 119 402 c 0
 120 398 121 396 121 396 c 1
 131 405 142 409 154 409 c 0
 195 409 226 379 226 329 c 0
 226 294 190 267 154 267 c 0
154 1 m 2
 114 1 85 31 85 71 c 0
 85 110 115 141 154 141 c 0
 194 141 225 110 225 72 c 0
 225 33 196 1 158 1 c 2
 154 1 l 2
EndSplineSet
Colour: ffda6b
EndChar

StartChar: _.sing.2noqte
Encoding: 65633 -1 97
GlifName: _.sing.2noqte
Width: 268
VWidth: 1352
GlyphClass: 2
Flags: HMW
LayerCount: 2
Fore
SplineSet
134 -0 m 0
 95 0 64 31 64 70 c 0
 64 108 96 139 134 139 c 0
 173 139 204 108 204 70 c 0
 204 31 174 0 134 -0 c 0
134 289 m 0
 95 289 64 320 64 358 c 0
 64 396 97 428 134 428 c 0
 173 428 204 396 204 358 c 0
 204 319 173 289 134 289 c 0
EndSplineSet
Colour: ffda6b
EndChar

StartChar: _.sing.noqte
Encoding: 65634 -1 98
GlifName: _.sing.noqte
Width: 268
VWidth: 1352
GlyphClass: 2
Flags: HMW
LayerCount: 2
Fore
SplineSet
134 -0 m 0
 95 0 64 31 64 70 c 0
 64 108 95 139 134 139 c 0
 173 139 204 108 204 70 c 0
 204 31 174 0 134 -0 c 0
EndSplineSet
Colour: ffda6b
EndChar

StartChar: _.sing.gheiomeh.right
Encoding: 65635 -1 99
GlifName: _.sing.gheiomeh.right
Width: 602
VWidth: 1352
GlyphClass: 2
Flags: HMW
LayerCount: 2
Fore
SplineSet
64 218 m 1
 64 261 l 1
 310 480 l 1
 310 380 l 1
 153 239 l 1
 310 100 l 1
 310 -1 l 1
 64 218 l 1
292 218 m 1
 292 261 l 1
 538 480 l 1
 538 380 l 1
 380 239 l 1
 538 100 l 1
 538 -1 l 1
 292 218 l 1
EndSplineSet
Colour: ffda6b
EndChar

StartChar: _.sing.gheiomeh.left
Encoding: 65636 -1 100
GlifName: _.sing.gheiomeh.left
Width: 602
VWidth: 1352
GlyphClass: 2
Flags: HMW
LayerCount: 2
Fore
SplineSet
64 -1 m 1
 64 100 l 1
 223 239 l 1
 64 380 l 1
 64 480 l 1
 310 261 l 1
 310 218 l 1
 64 -1 l 1
292 -1 m 1
 292 100 l 1
 451 239 l 1
 292 380 l 1
 292 480 l 1
 538 261 l 1
 538 218 l 1
 292 -1 l 1
EndSplineSet
Colour: ffda6b
EndChar

StartChar: _.sing.parantez.right
Encoding: 65637 -1 101
GlifName: _.sing.parantez.right
Width: 354
VWidth: 1352
GlyphClass: 2
Flags: HMW
LayerCount: 2
Fore
SplineSet
64 348 m 0
 64 497 114 646 213 799 c 1
 290 799 l 1
 203 651 159 499 159 348 c 0
 159 197 203 44 290 -104 c 1
 213 -104 l 1
 114 49 64 199 64 348 c 0
EndSplineSet
Colour: ffda6b
EndChar

StartChar: _.sing.parantez.left
Encoding: 65638 -1 102
GlifName: _.sing.parantez.left
Width: 354
VWidth: 1352
GlyphClass: 2
Flags: HMW
LayerCount: 2
Fore
SplineSet
64 -104 m 1
 151 44 195 197 195 348 c 0
 195 499 151 651 64 799 c 1
 142 799 l 1
 241 646 290 497 290 348 c 0
 290 199 241 49 142 -104 c 1
 64 -104 l 1
EndSplineSet
Colour: ffda6b
EndChar

StartChar: _.sing.parantez_tazeeni.right
Encoding: 65639 -1 103
GlifName: _.sing.parantez_tazeeni.right
Width: 894
VWidth: 0
GlyphClass: 2
Flags: HMW
LayerCount: 2
Fore
SplineSet
64 -484 m 1
 187 -367 275 -238 329 -100 c 1
 206 -100 l 1
 206 55 l 1
 100 161 l 1
 206 267 l 1
 206 420 l 1
 329 420 l 1
 269 567 174 697 64 805 c 1
 198 805 l 1
 420 730 571 602 655 420 c 1
 725 420 l 1
 725 267 l 1
 830 161 l 1
 725 55 l 1
 725 -100 l 1
 655 -100 l 1
 571 -281 420 -409 198 -484 c 1
 64 -484 l 1
175 161 m 1
 257 76 l 1
 257 -48 l 1
 380 -48 l 1
 465 -131 l 1
 550 -48 l 1
 673 -48 l 1
 673 76 l 1
 757 161 l 1
 673 245 l 1
 673 368 l 1
 550 368 l 1
 465 453 l 1
 380 368 l 1
 257 368 l 1
 257 245 l 1
 175 161 l 1
186 -432 m 1
 190 -432 l 1
 387 -364 523 -254 601 -100 c 1
 572 -100 l 1
 465 -205 l 1
 379 -120 l 1
 336 -237 272 -341 186 -432 c 1
186 754 m 1
 273 658 337 552 379 439 c 1
 465 524 l 1
 572 420 l 1
 601 420 l 1
 520 576 383 688 190 754 c 1
 186 754 l 1
467 -12 m 0
 370 -12 293 65 293 162 c 0
 293 259 367 335 464 335 c 0
 562 335 636 258 636 160 c 0
 636 63 564 -12 467 -12 c 0
347 161 m 1
 465 43 l 1
 585 161 l 1
 465 282 l 1
 347 161 l 1
EndSplineSet
Colour: ffda6b
EndChar

StartChar: _.sing.parantez_tazeeni.left
Encoding: 65640 -1 104
GlifName: _.sing.parantez_tazeeni.left
Width: 894
VWidth: 0
GlyphClass: 2
Flags: HMW
LayerCount: 2
Fore
SplineSet
64 161 m 1
 169 267 l 1
 169 420 l 1
 239 420 l 1
 323 602 474 730 696 805 c 1
 830 805 l 1
 720 696 625 567 565 420 c 1
 688 420 l 1
 688 267 l 1
 794 161 l 1
 688 55 l 1
 688 -100 l 1
 565 -100 l 1
 619 -238 707 -367 830 -484 c 1
 696 -484 l 1
 474 -409 323 -281 239 -100 c 1
 169 -100 l 1
 169 55 l 1
 64 161 l 1
137 161 m 1
 220 76 l 1
 220 -48 l 1
 343 -48 l 1
 428 -131 l 1
 513 -48 l 1
 636 -48 l 1
 636 76 l 1
 719 161 l 1
 636 245 l 1
 636 368 l 1
 513 368 l 1
 428 453 l 1
 343 368 l 1
 220 368 l 1
 220 245 l 1
 137 161 l 1
427 -12 m 0
 330 -12 257 63 257 160 c 0
 257 258 332 335 430 335 c 0
 527 335 601 259 601 162 c 0
 601 65 524 -12 427 -12 c 0
293 -100 m 1
 371 -254 507 -364 704 -432 c 1
 708 -432 l 1
 622 -341 558 -237 515 -120 c 1
 428 -205 l 1
 321 -100 l 1
 293 -100 l 1
293 420 m 1
 321 420 l 1
 428 524 l 1
 515 439 l 1
 557 552 621 658 708 754 c 1
 704 754 l 1
 511 688 374 576 293 420 c 1
309 161 m 1
 428 43 l 1
 547 161 l 1
 428 282 l 1
 309 161 l 1
EndSplineSet
Colour: ffda6b
EndChar

StartChar: _.sing.koroshe.right
Encoding: 65641 -1 105
GlifName: _.sing.koroshe.right
Width: 350
VWidth: 1197
GlyphClass: 2
Flags: HMW
LayerCount: 2
Fore
SplineSet
64 -159 m 1
 64 796 l 1
 286 796 l 1
 286 722 l 1
 161 722 l 1
 161 -84 l 1
 286 -84 l 1
 286 -159 l 1
 64 -159 l 1
EndSplineSet
Colour: ffda6b
EndChar

StartChar: _.sing.koroshe.left
Encoding: 65642 -1 106
GlifName: _.sing.koroshe.left
Width: 351
VWidth: 1197
GlyphClass: 2
Flags: HMW
LayerCount: 2
Fore
SplineSet
64 -81 m 1
 191 -81 l 1
 191 726 l 1
 64 726 l 1
 64 800 l 1
 287 800 l 1
 287 -155 l 1
 64 -155 l 1
 64 -81 l 1
EndSplineSet
Colour: ffda6b
EndChar

StartChar: _.sing.akolad.right
Encoding: 65643 -1 107
GlifName: _.sing.akolad.right
Width: 549
VWidth: 1197
GlyphClass: 2
Flags: HMW
LayerCount: 2
Fore
SplineSet
64 -29 m 1
 70 -29 76 -29 82 -29 c 0
 184 -29 223 -25 223 95 c 0
 223 154 222 199 222 235 c 0
 224 311 291 339 345 349 c 1
 288 358 223 387 222 471 c 0
 222 504 223 548 223 602 c 0
 223 722 184 725 82 725 c 0
 76 725 70 725 64 725 c 1
 64 800 l 1
 238 800 318 797 319 605 c 0
 319 555 316 517 316 488 c 0
 316 412 336 400 485 400 c 1
 485 300 l 1
 336 300 316 286 316 208 c 0
 316 179 319 141 319 92 c 0
 318 -100 238 -104 64 -104 c 1
 64 -29 l 1
EndSplineSet
Colour: ffda6b
EndChar

StartChar: _.sing.akolad.left
Encoding: 65644 -1 108
GlifName: _.sing.akolad.left
Width: 549
VWidth: 1197
GlyphClass: 2
Flags: HMW
LayerCount: 2
Fore
SplineSet
64 400 m 1
 213 400 233 412 233 489 c 0
 233 518 230 555 230 605 c 0
 232 797 313 800 485 800 c 1
 485 725 l 1
 479 725 473 725 467 725 c 0
 366 725 327 722 327 602 c 0
 327 548 329 504 329 471 c 0
 328 387 263 358 206 349 c 1
 260 339 327 311 329 235 c 0
 329 199 327 154 327 95 c 0
 327 -25 366 -29 467 -29 c 0
 473 -29 479 -29 485 -29 c 1
 485 -104 l 1
 313 -104 232 -100 230 92 c 0
 230 142 233 181 233 210 c 0
 233 286 212 300 65 300 c 1
 65 349 l 1
 64 400 l 1
EndSplineSet
Colour: ffda6b
EndChar

StartChar: _.mark.maad
Encoding: 65645 -1 109
GlifName: _.mark.maad
Width: 0
VWidth: 1352
GlyphClass: 2
Flags: HMW
LayerCount: 2
Fore
SplineSet
0 -1 m 1
 0 93 15 154 46 184 c 1
 111 168 168 160 220 160 c 0
 272 160 329 173 389 199 c 1
 419 119 l 1
 355 87 287 71 217 71 c 0
 181 71 146 75 110 84 c 1
 90 72 80 43 80 -1 c 1
 0 -1 l 1
EndSplineSet
Colour: ffda6b
EndChar

StartChar: _.mark.fatheh
Encoding: 65646 -1 110
GlifName: _.mark.fatheh
Width: 0
VWidth: 2310
GlyphClass: 2
Flags: HMW
LayerCount: 2
Fore
SplineSet
0 6 m 1
 0 84 l 1
 283 193 l 1
 283 118 l 1
 0 6 l 1
EndSplineSet
Colour: ffda6b
EndChar

StartChar: _.mark.kasreh
Encoding: 65647 -1 111
GlifName: _.mark.kasreh
Width: 0
VWidth: 2384
GlyphClass: 2
Flags: HMW
LayerCount: 2
Fore
SplineSet
0 -106 m 1
 283 4 l 1
 283 -72 l 1
 0 -185 l 1
 0 -106 l 1
EndSplineSet
Colour: ffda6b
EndChar

StartChar: _.mark.zameh
Encoding: 65648 -1 112
GlifName: _.mark.zameh
Width: 0
VWidth: 2277
GlyphClass: 2
Flags: HMW
LayerCount: 2
Fore
SplineSet
251 204 m 1
 263 199 283 196 298 191 c 1
 283 124 l 1
 268 129 l 2
 246 136 229 144 215 150 c 1
 171 91 104 44 18 10 c 1
 0 4 l 1
 0 86 l 1
 10 86 l 1
 67 100 114 129 155 170 c 1
 116 184 85 200 64 221 c 1
 59 225 l 1
 59 231 l 1
 61 323 114 385 203 390 c 1
 211 390 l 1
 242 376 267 329 267 282 c 0
 267 261 261 235 251 204 c 1
121 262 m 1
 131 255 144 247 162 240 c 0
 177 235 189 231 196 229 c 1
 203 241 206 253 206 263 c 0
 206 289 197 307 179 314 c 1
 142 314 130 294 121 262 c 1
EndSplineSet
Colour: ffda6b
EndChar

StartChar: _.mark.tanvin_fatheh
Encoding: 65649 -1 113
GlifName: _.mark.tanvin_fatheh
Width: 0
VWidth: 2280
GlyphClass: 2
Flags: HMW
LayerCount: 2
Fore
SplineSet
0 4 m 1
 0 80 l 1
 286 193 l 1
 286 116 l 1
 0 4 l 1
0 140 m 1
 0 218 l 1
 286 330 l 1
 286 253 l 1
 0 140 l 1
EndSplineSet
Colour: ffda6b
EndChar

StartChar: _.mark.tanvin_kasreh
Encoding: 65650 -1 114
GlifName: _.mark.tanvin_kasreh
Width: 0
VWidth: 2413
GlyphClass: 2
Flags: HMW
LayerCount: 2
Fore
SplineSet
0 -112 m 1
 286 -0 l 1
 286 -77 l 1
 0 -190 l 1
 0 -112 l 1
0 -250 m 1
 286 -137 l 1
 286 -214 l 1
 0 -326 l 1
 0 -250 l 1
EndSplineSet
Colour: ffda6b
EndChar

StartChar: _.mark.tanvin_zameh
Encoding: 65651 -1 115
GlifName: _.mark.tanvin_zameh
Width: 0
VWidth: 2273
GlyphClass: 2
Flags: HMW
LayerCount: 2
Fore
SplineSet
285 385 m 0
 342 385 362 337 362 285 c 0
 362 255 355 224 343 202 c 1
 378 194 l 1
 378 123 l 1
 310 144 l 1
 266 82 184 29 74 -4 c 1
 49 58 l 1
 69 64 90 72 110 81 c 1
 109 122 84 145 49 145 c 0
 40 145 31 143 21 140 c 1
 0 193 l 1
 21 200 40 204 58 204 c 0
 107 204 144 175 160 104 c 1
 197 125 229 148 246 166 c 1
 199 177 172 186 144 224 c 1
 153 266 163 296 177 316 c 0
 206 354 240 385 285 385 c 0
209 253 m 1
 231 235 261 229 284 220 c 1
 292 233 298 251 298 268 c 0
 298 286 291 303 272 312 c 1
 234 310 221 285 209 253 c 1
EndSplineSet
Colour: ffda6b
EndChar

StartChar: _.mark.tashdid
Encoding: 65652 -1 116
GlifName: _.mark.tashdid
Width: 0
VWidth: 1833
GlyphClass: 2
Flags: HMW
LayerCount: 2
Fore
SplineSet
0 116 m 2
 0 167 l 1
 57 181 l 1
 57 117 l 2
 57 78 68 58 91 58 c 0
 119 58 133 89 133 149 c 2
 133 204 l 1
 190 224 l 1
 190 149 l 2
 190 116 202 98 225 98 c 0
 251 98 263 114 263 145 c 0
 263 149 261 182 257 248 c 1
 316 261 l 1
 323 151 l 1
 323 71 291 32 229 32 c 0
 204 32 184 43 167 64 c 1
 149 25 122 1 90 1 c 0
 30 1 0 40 0 116 c 2
EndSplineSet
Colour: ffda6b
EndChar

StartChar: _.mark.hamze
Encoding: 65653 -1 117
GlifName: _.mark.hamze
Width: 0
VWidth: 1841
GlyphClass: 2
Flags: HMW
LayerCount: 2
Fore
SplineSet
0 64 m 1
 42 84 66 95 76 100 c 1
 48 122 36 152 36 183 c 0
 36 244 84 306 149 306 c 0
 182 306 219 290 257 250 c 1
 217 205 l 1
 199 226 176 235 155 235 c 0
 122 235 92 214 92 188 c 0
 92 169 109 147 154 129 c 1
 180 138 219 147 271 157 c 1
 281 90 l 1
 222 78 181 67 160 60 c 0
 138 53 92 33 23 1 c 1
 0 64 l 1
EndSplineSet
Colour: ffda6b
EndChar

StartChar: _.mark.sakon
Encoding: 65654 -1 118
GlifName: _.mark.sakon
Width: 0
VWidth: 2099
GlyphClass: 2
Flags: HMW
LayerCount: 2
Fore
SplineSet
0 101 m 0
 0 176 30 233 92 271 c 0
 97 273 96 273 102 272 c 0
 172 255 240 198 240 119 c 0
 240 41 183 0 108 -0 c 0
 55 0 0 48 0 101 c 0
63 109 m 0
 63 88 81 77 119 77 c 0
 145 77 166 86 183 101 c 1
 183 153 139 179 102 196 c 1
 75 176 63 147 63 109 c 0
EndSplineSet
Colour: ffda6b
EndChar

StartChar: _.mark.alef
Encoding: 65655 -1 119
GlifName: _.mark.alef
Width: 0
VWidth: 2091
GlyphClass: 2
Flags: HMW
LayerCount: 2
Fore
SplineSet
0 194 m 1
 58 248 l 1
 65 237 l 2
 101 180 111 134 111 81 c 0
 111 56 109 30 106 -0 c 1
 55 -0 l 1
 55 69 44 127 5 186 c 1
 0 194 l 1
EndSplineSet
Colour: ffda6b
EndChar

StartChar: _.sing.momaiez
Encoding: 65656 -1 120
GlifName: _.sing.momaiez
Width: 549
VWidth: 1352
GlyphClass: 2
Flags: HMW
LayerCount: 2
Fore
SplineSet
64 -206 m 1
 387 400 l 1
 485 400 l 1
 158 -206 l 1
 64 -206 l 1
EndSplineSet
Colour: ffda6b
EndChar

StartChar: _.sing.hezare
Encoding: 65657 -1 121
GlifName: _.sing.hezare
Width: 249
VWidth: 1197
GlyphClass: 2
Flags: HMW
LayerCount: 2
Fore
SplineSet
64 900 m 1
 185 900 l 1
 147 850 154 756 149 699 c 1
 98 699 l 1
 98 735 95 820 64 900 c 1
EndSplineSet
Colour: ffda6b
EndChar

StartChar: _.sing.darsad
Encoding: 65658 -1 122
GlifName: _.sing.darsad
Width: 728
VWidth: 1197
GlyphClass: 2
Flags: HMW
LayerCount: 2
Fore
SplineSet
64 -4 m 1
 552 800 l 1
 664 800 l 1
 176 -4 l 1
 64 -4 l 1
101 614 m 1
 101 788 l 1
 278 788 l 1
 278 614 l 1
 101 614 l 1
416 84 m 1
 416 261 l 1
 595 261 l 1
 595 84 l 1
 416 84 l 1
EndSplineSet
Colour: ffda6b
EndChar

StartChar: _.sing.mosavi
Encoding: 65659 -1 123
GlifName: _.sing.mosavi
Width: 800
VWidth: 1197
GlyphClass: 2
Flags: HMW
LayerCount: 2
Fore
SplineSet
64 91 m 1
 64 181 l 1
 736 181 l 1
 736 91 l 1
 64 91 l 1
64 306 m 1
 64 395 l 1
 736 395 l 1
 736 306 l 1
 64 306 l 1
EndSplineSet
Colour: ffda6b
EndChar

StartChar: _.sing.star5par
Encoding: 65660 -1 124
GlifName: _.sing.5par
Width: 682
VWidth: 1197
GlyphClass: 2
Flags: HMW
LayerCount: 2
Fore
SplineSet
214 2 m 0
 173 2 143 29 143 66 c 0
 143 83 147 99 156 111 c 2
 229 212 l 1
 111 250 l 2
 79 260 64 282 64 316 c 0
 64 349 91 383 124 383 c 0
 138 383 148 382 154 380 c 2
 273 341 l 1
 273 468 l 2
 273 510 307 535 341 535 c 0
 377 535 410 505 410 468 c 2
 410 341 l 1
 528 380 l 2
 535 382 545 383 559 383 c 0
 590 383 618 350 618 316 c 0
 618 282 602 260 571 250 c 2
 451 212 l 1
 524 111 l 2
 534 98 538 83 538 69 c 0
 538 33 508 2 467 2 c 0
 447 2 430 11 415 29 c 1
 341 133 l 1
 266 29 l 2
 252 11 235 2 214 2 c 0
EndSplineSet
Colour: ffda6b
EndChar

StartChar: _.beh_k.init
Encoding: 65661 -1 125
GlifName: _.beh_k.init
Width: 453
VWidth: 1197
GlyphClass: 2
UnlinkRmOvrlpSave: 1
Flags: HMW
LayerCount: 2
Fore
SplineSet
-50 50 m 0
 -49 76 -25 100 0 100 c 2
 143 100 l 2
 226 100 263 120 263 182 c 0
 263 225 245 289 212 380 c 1
 303 418 l 1
 343 316 363 236 363 173 c 0
 363 52 288 0 143 -0 c 2
 0 -0 l 2
 -26 0 -50 24 -50 50 c 0
EndSplineSet
Colour: ffda6b
EndChar

StartChar: _.beh_k.medi
Encoding: 65662 -1 126
GlifName: _.beh_k.medi
Width: 505
VWidth: 1304
GlyphClass: 2
UnlinkRmOvrlpSave: 1
Flags: HMW
LayerCount: 2
Fore
SplineSet
-50 49 m 0
 -50 76 -27 100 -1 100 c 2
 103 100 l 2
 172 100 273 112 273 204 c 2
 273 321 l 1
 362 321 l 1
 362 204 l 2
 362 136 433 100 490 100 c 2
 505 100 l 1
 505 -0 l 1
 490 -0 l 2
 405 0 347 31 322 69 c 1
 273 6 199 0 103 -0 c 2
 -1 -0 l 2
 -25 0 -50 24 -50 49 c 0
EndSplineSet
Colour: ffda6b
EndChar

StartChar: _.sing.3noqte
Encoding: 65663 -1 127
GlifName: _.sing.3noqte
Width: 982
VWidth: 1304
GlyphClass: 2
Flags: HMW
LayerCount: 2
Fore
SplineSet
134 -0 m 0
 96 0 64 32 64 70 c 0
 64 108 96 140 134 140 c 0
 172 140 204 108 204 70 c 0
 204 32 172 0 134 -0 c 0
491 -0 m 0
 453 0 423 32 423 70 c 0
 423 108 453 140 491 140 c 0
 530 140 561 109 561 70 c 0
 561 31 530 0 491 -0 c 0
849 -0 m 0
 810 0 779 32 779 70 c 0
 779 108 810 140 849 140 c 0
 887 140 918 109 918 70 c 0
 918 31 887 0 849 -0 c 0
EndSplineSet
Colour: ffda6b
EndChar

StartChar: s.khat_tire
Encoding: 8208 8208 138
GlifName: s.khat_tire
Width: 464
VWidth: 0
GlyphClass: 2
Flags: HMW
LayerCount: 2
Fore
SplineSet
34 229 m 1
 34 307 l 1
 430 307 l 1
 430 229 l 1
 34 229 l 1
EndSplineSet
Colour: d7d7d7
EndChar

StartChar: s.zwj
Encoding: 8205 8205 174
GlifName: s.zwj
Width: 0
VWidth: 1331
GlyphClass: 2
Flags: HMW
LayerCount: 2
Fore
SplineSet
25 -327 m 1
 -25 -327 l 1
 -25 579 l 1
 -111 491 l 1
 -141 521 l 1
 -30 631 l 1
 -141 740 l 1
 -111 772 l 1
 0 660 l 1
 111 772 l 1
 141 740 l 1
 30 631 l 1
 141 521 l 1
 111 491 l 1
 25 579 l 1
 25 -327 l 1
EndSplineSet
Colour: d7d7d7
EndChar

StartChar: s.tagsim
Encoding: 247 247 182
GlifName: s.tagsim
Width: 564
VWidth: 1278
GlyphClass: 2
Flags: HMW
LayerCount: 2
Fore
SplineSet
59 352 m 1
 59 429 l 1
 506 429 l 1
 506 352 l 1
 59 352 l 1
234 204 m 1
 234 299 l 1
 330 299 l 1
 330 204 l 1
 234 204 l 1
234 482 m 1
 234 577 l 1
 330 577 l 1
 330 482 l 1
 234 482 l 1
EndSplineSet
Colour: d7d7d7
EndChar

StartChar: s.zwnj
Encoding: 8204 8204 215
GlifName: s.zwnj
Width: 0
VWidth: 1331
GlyphClass: 2
Flags: HMW
LayerCount: 2
Fore
SplineSet
-25 -308 m 1
 -25 710 l 1
 25 710 l 1
 25 -308 l 1
 -25 -308 l 1
EndSplineSet
Colour: d7d7d7
EndChar

StartChar: s.dotted_circle
Encoding: 9676 9676 220
GlifName: s.dotted_circle
Width: 576
VWidth: 1890
GlyphClass: 2
Flags: HMW
LayerCount: 2
Fore
SplineSet
60 181 m 0
 60 196 67 203 82 203 c 0
 97 203 104 196 104 182 c 2
 104 180 l 2
 104 166 97 159 82 159 c 0
 67 159 60 166 60 181 c 0
76 103 m 0
 76 118 83 126 98 126 c 0
 113 126 120 118 120 103 c 0
 120 88 113 80 98 80 c 0
 83 80 76 88 76 103 c 0
76 259 m 0
 76 274 83 282 98 282 c 0
 113 282 120 274 120 259 c 0
 120 244 113 236 99 236 c 0
 84 236 76 244 76 259 c 0
120 34 m 0
 120 49 127 56 142 57 c 0
 157 56 164 49 165 34 c 0
 164 19 157 12 142 12 c 0
 127 12 120 19 120 34 c 0
120 326 m 0
 120 341 127 348 142 349 c 0
 157 348 164 341 165 326 c 0
 164 311 157 304 142 304 c 0
 127 304 120 311 120 326 c 0
187 -8 m 0
 187 7 195 14 210 14 c 0
 225 14 233 7 233 -8 c 0
 233 -23 225 -30 210 -30 c 0
 195 -30 187 -23 187 -8 c 0
187 372 m 0
 187 387 195 394 210 394 c 0
 225 394 233 387 233 372 c 0
 233 357 225 350 210 350 c 0
 195 350 187 357 187 372 c 0
310 -26 m 0
 310 -41 303 -48 288 -48 c 0
 273 -48 266 -41 265 -26 c 0
 266 -11 273 -4 288 -3 c 0
 303 -4 310 -11 310 -26 c 0
288 410 m 0
 303 410 310 403 310 388 c 0
 310 373 303 366 288 365 c 0
 273 366 266 373 265 388 c 0
 266 403 273 410 288 410 c 0
344 -8 m 0
 344 7 352 14 367 14 c 0
 382 14 390 7 390 -8 c 0
 390 -22 382 -30 367 -31 c 0
 352 -30 344 -22 344 -8 c 0
344 372 m 0
 344 387 352 394 367 394 c 0
 382 394 390 387 390 372 c 0
 390 358 382 350 367 349 c 0
 352 350 344 358 344 372 c 0
412 34 m 0
 412 49 419 56 434 57 c 0
 449 56 456 49 456 34 c 0
 456 19 449 12 434 12 c 0
 419 12 412 19 412 34 c 0
412 326 m 0
 412 341 419 348 434 349 c 0
 449 348 456 341 456 326 c 0
 456 311 449 304 434 304 c 0
 419 304 412 311 412 326 c 0
456 103 m 0
 456 118 463 126 478 126 c 0
 492 126 500 118 501 103 c 0
 500 88 492 80 478 80 c 0
 463 80 456 88 456 103 c 0
456 259 m 0
 456 274 463 282 478 282 c 0
 492 282 500 274 501 259 c 0
 500 244 492 236 478 236 c 0
 463 236 456 244 456 259 c 0
472 181 m 0
 472 196 479 203 494 203 c 0
 509 203 516 196 517 182 c 1
 517 180 l 1
 516 166 509 159 494 159 c 0
 479 159 472 166 472 181 c 0
EndSplineSet
Colour: d7d7d7
EndChar

StartChar: s.figure_dash
Encoding: 8210 8210 224
GlifName: s.figure_dash
Width: 600
VWidth: 0
GlyphClass: 2
Flags: HMW
LayerCount: 2
Fore
SplineSet
55 229 m 1
 55 307 l 1
 547 307 l 1
 547 229 l 1
 55 229 l 1
EndSplineSet
Colour: d7d7d7
EndChar

StartChar: s.em_dash
Encoding: 8212 8212 263
GlifName: s.em_dash
Width: 1200
VWidth: 1175
GlyphClass: 2
Flags: HMW
LayerCount: 2
Fore
SplineSet
55 229 m 1
 55 307 l 1
 1147 307 l 1
 1147 229 l 1
 55 229 l 1
EndSplineSet
Colour: d7d7d7
EndChar

StartChar: s.bullet
Encoding: 8226 8226 278
GlifName: s.bullet
Width: 602
VWidth: 1331
GlyphClass: 2
Flags: HMW
LayerCount: 2
Fore
SplineSet
295 650 m 0
 435 650 532 570 532 432 c 0
 532 307 427 202 302 202 c 0
 245 202 194 223 147 266 c 0
 100 309 77 357 77 410 c 0
 77 483 99 542 142 585 c 0
 185 628 236 650 295 650 c 0
EndSplineSet
Colour: d7d7d7
EndChar

StartChar: s.en_dash
Encoding: 8211 8211 310
GlifName: s.en_dash
Width: 600
VWidth: 1175
GlyphClass: 2
Flags: HMW
LayerCount: 2
Fore
SplineSet
55 229 m 1
 55 307 l 1
 547 307 l 1
 547 229 l 1
 55 229 l 1
EndSplineSet
Colour: d7d7d7
EndChar

StartChar: s.horizontal_bar
Encoding: 8213 8213 316
GlifName: s.horizontal_bar
Width: 2400
VWidth: 1175
GlyphClass: 2
Flags: HMW
LayerCount: 2
Fore
SplineSet
55 229 m 1
 55 307 l 1
 2347 307 l 1
 2347 229 l 1
 55 229 l 1
EndSplineSet
Colour: d7d7d7
EndChar

StartChar: s.lrm
Encoding: 8206 8206 317
GlifName: s.lrm
Width: 0
VWidth: 1331
GlyphClass: 2
Flags: HMW
LayerCount: 2
Fore
SplineSet
-25 -308 m 1
 -25 676 l 1
 196 676 l 1
 106 759 l 1
 138 790 l 1
 280 651 l 1
 138 510 l 1
 106 544 l 1
 196 628 l 1
 22 628 l 1
 22 -308 l 1
 -25 -308 l 1
EndSplineSet
Colour: d7d7d7
EndChar

StartChar: s.rlm
Encoding: 8207 8207 346
GlifName: s.rlm
Width: 0
VWidth: 1331
GlyphClass: 2
Flags: HMW
LayerCount: 2
Fore
SplineSet
22 676 m 1
 22 -308 l 1
 -25 -308 l 1
 -25 628 l 1
 -196 628 l 1
 -108 544 l 1
 -138 510 l 1
 -280 651 l 1
 -138 790 l 1
 -108 759 l 1
 -196 676 l 1
 22 676 l 1
EndSplineSet
Colour: d7d7d7
EndChar

StartChar: _.sing.yeh_domBoride
Encoding: 65664 -1 400
GlifName: _.mark.he_yeh
Width: 428
VWidth: 1304
GlyphClass: 1
UnlinkRmOvrlpSave: 1
Flags: HMW
LayerCount: 2
Fore
SplineSet
64 -1 m 1
 64 79 l 1
 78 79 94 78 110 78 c 0
 190 78 296 81 296 114 c 0
 296 148 153 138 153 240 c 0
 153 346 238 362 340 364 c 1
 340 289 l 1
 256 289 220 275 220 236 c 0
 220 198 364 209 364 121 c 0
 364 24 256 -1 64 -1 c 1
EndSplineSet
EndChar

StartChar: uni0000
Encoding: 0 0 401
GlifName: uni0000
Width: 497
VWidth: 0
GlyphClass: 2
Flags: HMW
LayerCount: 2
Fore
SplineSet
59 -251 m 1
 59 709 l 1
 438 709 l 1
 438 -251 l 1
 59 -251 l 1
105 -181 m 1
 387 -181 l 1
 387 648 l 1
 105 648 l 1
 105 -181 l 1
EndSplineSet
EndChar

StartChar: _.ghaf.medi
Encoding: 65665 -1 402
GlifName: _.ghaf.medi
Width: 615
VWidth: 0
GlyphClass: 2
Flags: HMW
LayerCount: 2
Fore
SplineSet
-50 50 m 0
 -49 76 -25 100 0 100 c 2
 127 100 l 2
 250 100 281 134 282 181 c 0
 282 315 58 457 25 479 c 1
 42 577 43 593 84 618 c 0
 180 675 338 748 473 800 c 1
 473 697 l 1
 367 661 225 591 125 533 c 1
 175 497 219 462 253 428 c 0
 339 344 395 263 473 178 c 0
 514 134 546 100 615 100 c 1
 615 -0 l 1
 491 0 435 63 376 139 c 1
 358 55 280 0 143 -0 c 2
 0 -0 l 2
 -26 0 -50 24 -50 50 c 0
45 757 m 1
 388 923 l 1
 388 860 l 1
 51 695 l 1
 45 757 l 1
EndSplineSet
Colour: ffda6b
EndChar

StartChar: _.ghaf.init
Encoding: 65666 -1 403
GlifName: _.ghaf.init
Width: 563
VWidth: 0
GlyphClass: 2
Flags: HMW
LayerCount: 2
Fore
SplineSet
-50 50 m 0
 -49 76 -25 100 0 100 c 2
 127 100 l 2
 250 100 281 134 282 181 c 0
 282 315 58 457 25 479 c 1
 42 577 43 593 84 618 c 0
 180 675 338 748 473 800 c 1
 473 697 l 1
 367 661 225 591 125 533 c 1
 300 410 381 291 381 180 c 0
 381 75 302 0 143 -0 c 2
 0 -0 l 2
 -26 0 -50 24 -50 50 c 0
45 757 m 1
 388 923 l 1
 388 860 l 1
 51 695 l 1
 45 757 l 1
EndSplineSet
Colour: ffda6b
EndChar

StartChar: _.la.isol.fa
Encoding: 65667 -1 404
Width: 626
VWidth: 0
Flags: HMW
LayerCount: 2
Fore
SplineSet
90 573 m 1
 170 619 l 1
 335 164 l 1
 251 133 l 1
 90 573 l 1
127 44 m 1
 357 96 446 142 446 260 c 2
 446 800 l 1
 536 800 l 1
 536 284 l 2
 536 133 517 25 140 -51 c 1
 127 44 l 1
EndSplineSet
Colour: ffda6b
EndChar

StartChar: _.la.fina.fa
Encoding: 65668 -1 405
Width: 717
VWidth: 0
Flags: HMW
LayerCount: 2
Fore
SplineSet
90 573 m 1
 170 619 l 1
 335 164 l 1
 251 133 l 1
 90 573 l 1
127 44 m 1
 357 96 446 142 446 260 c 2
 446 800 l 1
 536 800 l 1
 536 213 l 1
 569 127 605 100 717 100 c 1
 717 0 l 1
 617 0 535 17 483 93 c 1
 433 35 333 -12 140 -51 c 1
 127 44 l 1
EndSplineSet
Colour: ffda6b
EndChar

StartChar: _.sing.alef_maad
Encoding: 65671 -1 408
Width: 547
VWidth: 1352
Flags: HMW
LayerCount: 2
Fore
SplineSet
64 -0 m 1
 64 94 79 155 110 186 c 1
 157 181 202 173 253 173 c 0
 310 173 373 183 453 218 c 1
 483 120 l 1
 400 80 320 69 260 69 c 0
 214 69 180 76 165 81 c 1
 145 69 144 44 144 -0 c 1
 64 -0 l 1
EndSplineSet
Colour: ffda6b
EndChar

StartChar: _.sing.star
Encoding: 65672 -1 409
Width: 601
VWidth: 1197
Flags: HMW
LayerCount: 2
Fore
SplineSet
64 143 m 1
 254 246 l 1
 64 346 l 1
 96 397 l 1
 272 292 l 1
 272 490 l 1
 331 490 l 1
 331 292 l 1
 507 397 l 1
 537 346 l 1
 350 246 l 1
 537 143 l 1
 507 92 l 1
 331 197 l 1
 331 1 l 1
 272 1 l 1
 272 197 l 1
 96 92 l 1
 64 143 l 1
EndSplineSet
Colour: ffda6b
EndChar

StartChar: _.sing.zarb
Encoding: 65673 -1 410
Width: 734
VWidth: 1279
Flags: HMW
LayerCount: 2
Fore
SplineSet
64 64 m 1
 302 304 l 1
 64 544 l 1
 126 608 l 1
 367 367 l 1
 607 608 l 1
 670 544 l 1
 428 304 l 1
 670 64 l 1
 607 1 l 1
 367 241 l 1
 126 1 l 1
 64 64 l 1
EndSplineSet
Colour: ffda6b
EndChar

StartChar: _.sing.khateh_amoodi
Encoding: 65674 -1 411
Width: 217
VWidth: 1331
Flags: HMW
LayerCount: 2
Fore
SplineSet
64 1 m 1
 64 363 l 1
 153 363 l 1
 153 1 l 1
 64 1 l 1
64 438 m 1
 64 800 l 1
 153 800 l 1
 153 438 l 1
 64 438 l 1
EndSplineSet
Colour: ffda6b
EndChar

StartChar: _.num.0.ar
Encoding: 65675 -1 412
Width: 430
VWidth: 1424
Flags: HW
LayerCount: 2
Fore
SplineSet
90 241 m 1
 198 377 l 1
 340 271 l 1
 228 130 l 1
 90 241 l 1
EndSplineSet
EndChar

